<?xml version="1.0" encoding="utf-8" standalone="no"?>
<!DOCTYPE svg PUBLIC "-//W3C//DTD SVG 1.1//EN"
  "http://www.w3.org/Graphics/SVG/1.1/DTD/svg11.dtd">
<!-- Created with matplotlib (https://matplotlib.org/) -->
<svg height="576pt" version="1.1" viewBox="0 0 1152 576" width="1152pt" xmlns="http://www.w3.org/2000/svg" xmlns:xlink="http://www.w3.org/1999/xlink">
 <metadata>
  <rdf:RDF xmlns:cc="http://creativecommons.org/ns#" xmlns:dc="http://purl.org/dc/elements/1.1/" xmlns:rdf="http://www.w3.org/1999/02/22-rdf-syntax-ns#">
   <cc:Work>
    <dc:type rdf:resource="http://purl.org/dc/dcmitype/StillImage"/>
    <dc:date>2020-12-18T20:05:19.581196</dc:date>
    <dc:format>image/svg+xml</dc:format>
    <dc:creator>
     <cc:Agent>
      <dc:title>Matplotlib v3.3.2, https://matplotlib.org/</dc:title>
     </cc:Agent>
    </dc:creator>
   </cc:Work>
  </rdf:RDF>
 </metadata>
 <defs>
  <style type="text/css">*{stroke-linecap:butt;stroke-linejoin:round;}</style>
 </defs>
 <g id="figure_1">
  <g id="patch_1">
   <path d="M 0 576 
L 1152 576 
L 1152 0 
L 0 0 
z
" style="fill:none;"/>
  </g>
  <g id="axes_1">
   <g id="patch_2">
    <path d="M 144 504 
L 549.818182 504 
L 549.818182 69.12 
L 144 69.12 
z
" style="fill:#ffffff;"/>
   </g>
   <g id="matplotlib.axis_1">
    <g id="xtick_1">
     <g id="line2d_1">
      <defs>
       <path d="M 0 0 
L 0 3.5 
" id="m9b5df66511" style="stroke:#000000;stroke-width:0.8;"/>
      </defs>
      <g>
       <use style="stroke:#000000;stroke-width:0.8;" x="162.446281" xlink:href="#m9b5df66511" y="504"/>
      </g>
     </g>
     <g id="text_1">
      <!-- 0 -->
      <g transform="translate(159.265031 518.598438)scale(0.1 -0.1)">
       <defs>
        <path d="M 31.78125 66.40625 
Q 24.171875 66.40625 20.328125 58.90625 
Q 16.5 51.421875 16.5 36.375 
Q 16.5 21.390625 20.328125 13.890625 
Q 24.171875 6.390625 31.78125 6.390625 
Q 39.453125 6.390625 43.28125 13.890625 
Q 47.125 21.390625 47.125 36.375 
Q 47.125 51.421875 43.28125 58.90625 
Q 39.453125 66.40625 31.78125 66.40625 
z
M 31.78125 74.21875 
Q 44.046875 74.21875 50.515625 64.515625 
Q 56.984375 54.828125 56.984375 36.375 
Q 56.984375 17.96875 50.515625 8.265625 
Q 44.046875 -1.421875 31.78125 -1.421875 
Q 19.53125 -1.421875 13.0625 8.265625 
Q 6.59375 17.96875 6.59375 36.375 
Q 6.59375 54.828125 13.0625 64.515625 
Q 19.53125 74.21875 31.78125 74.21875 
z
" id="DejaVuSans-48"/>
       </defs>
       <use xlink:href="#DejaVuSans-48"/>
      </g>
     </g>
    </g>
    <g id="xtick_2">
     <g id="line2d_2">
      <g>
       <use style="stroke:#000000;stroke-width:0.8;" x="178.486525" xlink:href="#m9b5df66511" y="504"/>
      </g>
     </g>
     <g id="text_2">
      <!-- 1 -->
      <g transform="translate(175.305275 518.598438)scale(0.1 -0.1)">
       <defs>
        <path d="M 12.40625 8.296875 
L 28.515625 8.296875 
L 28.515625 63.921875 
L 10.984375 60.40625 
L 10.984375 69.390625 
L 28.421875 72.90625 
L 38.28125 72.90625 
L 38.28125 8.296875 
L 54.390625 8.296875 
L 54.390625 0 
L 12.40625 0 
z
" id="DejaVuSans-49"/>
       </defs>
       <use xlink:href="#DejaVuSans-49"/>
      </g>
     </g>
    </g>
    <g id="xtick_3">
     <g id="line2d_3">
      <g>
       <use style="stroke:#000000;stroke-width:0.8;" x="194.52677" xlink:href="#m9b5df66511" y="504"/>
      </g>
     </g>
     <g id="text_3">
      <!-- 2 -->
      <g transform="translate(191.34552 518.598438)scale(0.1 -0.1)">
       <defs>
        <path d="M 19.1875 8.296875 
L 53.609375 8.296875 
L 53.609375 0 
L 7.328125 0 
L 7.328125 8.296875 
Q 12.9375 14.109375 22.625 23.890625 
Q 32.328125 33.6875 34.8125 36.53125 
Q 39.546875 41.84375 41.421875 45.53125 
Q 43.3125 49.21875 43.3125 52.78125 
Q 43.3125 58.59375 39.234375 62.25 
Q 35.15625 65.921875 28.609375 65.921875 
Q 23.96875 65.921875 18.8125 64.3125 
Q 13.671875 62.703125 7.8125 59.421875 
L 7.8125 69.390625 
Q 13.765625 71.78125 18.9375 73 
Q 24.125 74.21875 28.421875 74.21875 
Q 39.75 74.21875 46.484375 68.546875 
Q 53.21875 62.890625 53.21875 53.421875 
Q 53.21875 48.921875 51.53125 44.890625 
Q 49.859375 40.875 45.40625 35.40625 
Q 44.1875 33.984375 37.640625 27.21875 
Q 31.109375 20.453125 19.1875 8.296875 
z
" id="DejaVuSans-50"/>
       </defs>
       <use xlink:href="#DejaVuSans-50"/>
      </g>
     </g>
    </g>
    <g id="xtick_4">
     <g id="line2d_4">
      <g>
       <use style="stroke:#000000;stroke-width:0.8;" x="210.567014" xlink:href="#m9b5df66511" y="504"/>
      </g>
     </g>
     <g id="text_4">
      <!-- 3 -->
      <g transform="translate(207.385764 518.598438)scale(0.1 -0.1)">
       <defs>
        <path d="M 40.578125 39.3125 
Q 47.65625 37.796875 51.625 33 
Q 55.609375 28.21875 55.609375 21.1875 
Q 55.609375 10.40625 48.1875 4.484375 
Q 40.765625 -1.421875 27.09375 -1.421875 
Q 22.515625 -1.421875 17.65625 -0.515625 
Q 12.796875 0.390625 7.625 2.203125 
L 7.625 11.71875 
Q 11.71875 9.328125 16.59375 8.109375 
Q 21.484375 6.890625 26.8125 6.890625 
Q 36.078125 6.890625 40.9375 10.546875 
Q 45.796875 14.203125 45.796875 21.1875 
Q 45.796875 27.640625 41.28125 31.265625 
Q 36.765625 34.90625 28.71875 34.90625 
L 20.21875 34.90625 
L 20.21875 43.015625 
L 29.109375 43.015625 
Q 36.375 43.015625 40.234375 45.921875 
Q 44.09375 48.828125 44.09375 54.296875 
Q 44.09375 59.90625 40.109375 62.90625 
Q 36.140625 65.921875 28.71875 65.921875 
Q 24.65625 65.921875 20.015625 65.03125 
Q 15.375 64.15625 9.8125 62.3125 
L 9.8125 71.09375 
Q 15.4375 72.65625 20.34375 73.4375 
Q 25.25 74.21875 29.59375 74.21875 
Q 40.828125 74.21875 47.359375 69.109375 
Q 53.90625 64.015625 53.90625 55.328125 
Q 53.90625 49.265625 50.4375 45.09375 
Q 46.96875 40.921875 40.578125 39.3125 
z
" id="DejaVuSans-51"/>
       </defs>
       <use xlink:href="#DejaVuSans-51"/>
      </g>
     </g>
    </g>
    <g id="xtick_5">
     <g id="line2d_5">
      <g>
       <use style="stroke:#000000;stroke-width:0.8;" x="226.607258" xlink:href="#m9b5df66511" y="504"/>
      </g>
     </g>
     <g id="text_5">
      <!-- 4 -->
      <g transform="translate(223.426008 518.598438)scale(0.1 -0.1)">
       <defs>
        <path d="M 37.796875 64.3125 
L 12.890625 25.390625 
L 37.796875 25.390625 
z
M 35.203125 72.90625 
L 47.609375 72.90625 
L 47.609375 25.390625 
L 58.015625 25.390625 
L 58.015625 17.1875 
L 47.609375 17.1875 
L 47.609375 0 
L 37.796875 0 
L 37.796875 17.1875 
L 4.890625 17.1875 
L 4.890625 26.703125 
z
" id="DejaVuSans-52"/>
       </defs>
       <use xlink:href="#DejaVuSans-52"/>
      </g>
     </g>
    </g>
    <g id="xtick_6">
     <g id="line2d_6">
      <g>
       <use style="stroke:#000000;stroke-width:0.8;" x="242.647503" xlink:href="#m9b5df66511" y="504"/>
      </g>
     </g>
     <g id="text_6">
      <!-- 5 -->
      <g transform="translate(239.466253 518.598438)scale(0.1 -0.1)">
       <defs>
        <path d="M 10.796875 72.90625 
L 49.515625 72.90625 
L 49.515625 64.59375 
L 19.828125 64.59375 
L 19.828125 46.734375 
Q 21.96875 47.46875 24.109375 47.828125 
Q 26.265625 48.1875 28.421875 48.1875 
Q 40.625 48.1875 47.75 41.5 
Q 54.890625 34.8125 54.890625 23.390625 
Q 54.890625 11.625 47.5625 5.09375 
Q 40.234375 -1.421875 26.90625 -1.421875 
Q 22.3125 -1.421875 17.546875 -0.640625 
Q 12.796875 0.140625 7.71875 1.703125 
L 7.71875 11.625 
Q 12.109375 9.234375 16.796875 8.0625 
Q 21.484375 6.890625 26.703125 6.890625 
Q 35.15625 6.890625 40.078125 11.328125 
Q 45.015625 15.765625 45.015625 23.390625 
Q 45.015625 31 40.078125 35.4375 
Q 35.15625 39.890625 26.703125 39.890625 
Q 22.75 39.890625 18.8125 39.015625 
Q 14.890625 38.140625 10.796875 36.28125 
z
" id="DejaVuSans-53"/>
       </defs>
       <use xlink:href="#DejaVuSans-53"/>
      </g>
     </g>
    </g>
    <g id="xtick_7">
     <g id="line2d_7">
      <g>
       <use style="stroke:#000000;stroke-width:0.8;" x="258.687747" xlink:href="#m9b5df66511" y="504"/>
      </g>
     </g>
     <g id="text_7">
      <!-- 6 -->
      <g transform="translate(255.506497 518.598438)scale(0.1 -0.1)">
       <defs>
        <path d="M 33.015625 40.375 
Q 26.375 40.375 22.484375 35.828125 
Q 18.609375 31.296875 18.609375 23.390625 
Q 18.609375 15.53125 22.484375 10.953125 
Q 26.375 6.390625 33.015625 6.390625 
Q 39.65625 6.390625 43.53125 10.953125 
Q 47.40625 15.53125 47.40625 23.390625 
Q 47.40625 31.296875 43.53125 35.828125 
Q 39.65625 40.375 33.015625 40.375 
z
M 52.59375 71.296875 
L 52.59375 62.3125 
Q 48.875 64.0625 45.09375 64.984375 
Q 41.3125 65.921875 37.59375 65.921875 
Q 27.828125 65.921875 22.671875 59.328125 
Q 17.53125 52.734375 16.796875 39.40625 
Q 19.671875 43.65625 24.015625 45.921875 
Q 28.375 48.1875 33.59375 48.1875 
Q 44.578125 48.1875 50.953125 41.515625 
Q 57.328125 34.859375 57.328125 23.390625 
Q 57.328125 12.15625 50.6875 5.359375 
Q 44.046875 -1.421875 33.015625 -1.421875 
Q 20.359375 -1.421875 13.671875 8.265625 
Q 6.984375 17.96875 6.984375 36.375 
Q 6.984375 53.65625 15.1875 63.9375 
Q 23.390625 74.21875 37.203125 74.21875 
Q 40.921875 74.21875 44.703125 73.484375 
Q 48.484375 72.75 52.59375 71.296875 
z
" id="DejaVuSans-54"/>
       </defs>
       <use xlink:href="#DejaVuSans-54"/>
      </g>
     </g>
    </g>
    <g id="xtick_8">
     <g id="line2d_8">
      <g>
       <use style="stroke:#000000;stroke-width:0.8;" x="274.727991" xlink:href="#m9b5df66511" y="504"/>
      </g>
     </g>
     <g id="text_8">
      <!-- 7 -->
      <g transform="translate(271.546741 518.598438)scale(0.1 -0.1)">
       <defs>
        <path d="M 8.203125 72.90625 
L 55.078125 72.90625 
L 55.078125 68.703125 
L 28.609375 0 
L 18.3125 0 
L 43.21875 64.59375 
L 8.203125 64.59375 
z
" id="DejaVuSans-55"/>
       </defs>
       <use xlink:href="#DejaVuSans-55"/>
      </g>
     </g>
    </g>
    <g id="xtick_9">
     <g id="line2d_9">
      <g>
       <use style="stroke:#000000;stroke-width:0.8;" x="290.768236" xlink:href="#m9b5df66511" y="504"/>
      </g>
     </g>
     <g id="text_9">
      <!-- 8 -->
      <g transform="translate(287.586986 518.598438)scale(0.1 -0.1)">
       <defs>
        <path d="M 31.78125 34.625 
Q 24.75 34.625 20.71875 30.859375 
Q 16.703125 27.09375 16.703125 20.515625 
Q 16.703125 13.921875 20.71875 10.15625 
Q 24.75 6.390625 31.78125 6.390625 
Q 38.8125 6.390625 42.859375 10.171875 
Q 46.921875 13.96875 46.921875 20.515625 
Q 46.921875 27.09375 42.890625 30.859375 
Q 38.875 34.625 31.78125 34.625 
z
M 21.921875 38.8125 
Q 15.578125 40.375 12.03125 44.71875 
Q 8.5 49.078125 8.5 55.328125 
Q 8.5 64.0625 14.71875 69.140625 
Q 20.953125 74.21875 31.78125 74.21875 
Q 42.671875 74.21875 48.875 69.140625 
Q 55.078125 64.0625 55.078125 55.328125 
Q 55.078125 49.078125 51.53125 44.71875 
Q 48 40.375 41.703125 38.8125 
Q 48.828125 37.15625 52.796875 32.3125 
Q 56.78125 27.484375 56.78125 20.515625 
Q 56.78125 9.90625 50.3125 4.234375 
Q 43.84375 -1.421875 31.78125 -1.421875 
Q 19.734375 -1.421875 13.25 4.234375 
Q 6.78125 9.90625 6.78125 20.515625 
Q 6.78125 27.484375 10.78125 32.3125 
Q 14.796875 37.15625 21.921875 38.8125 
z
M 18.3125 54.390625 
Q 18.3125 48.734375 21.84375 45.5625 
Q 25.390625 42.390625 31.78125 42.390625 
Q 38.140625 42.390625 41.71875 45.5625 
Q 45.3125 48.734375 45.3125 54.390625 
Q 45.3125 60.0625 41.71875 63.234375 
Q 38.140625 66.40625 31.78125 66.40625 
Q 25.390625 66.40625 21.84375 63.234375 
Q 18.3125 60.0625 18.3125 54.390625 
z
" id="DejaVuSans-56"/>
       </defs>
       <use xlink:href="#DejaVuSans-56"/>
      </g>
     </g>
    </g>
    <g id="xtick_10">
     <g id="line2d_10">
      <g>
       <use style="stroke:#000000;stroke-width:0.8;" x="306.80848" xlink:href="#m9b5df66511" y="504"/>
      </g>
     </g>
     <g id="text_10">
      <!-- 9 -->
      <g transform="translate(303.62723 518.598438)scale(0.1 -0.1)">
       <defs>
        <path d="M 10.984375 1.515625 
L 10.984375 10.5 
Q 14.703125 8.734375 18.5 7.8125 
Q 22.3125 6.890625 25.984375 6.890625 
Q 35.75 6.890625 40.890625 13.453125 
Q 46.046875 20.015625 46.78125 33.40625 
Q 43.953125 29.203125 39.59375 26.953125 
Q 35.25 24.703125 29.984375 24.703125 
Q 19.046875 24.703125 12.671875 31.3125 
Q 6.296875 37.9375 6.296875 49.421875 
Q 6.296875 60.640625 12.9375 67.421875 
Q 19.578125 74.21875 30.609375 74.21875 
Q 43.265625 74.21875 49.921875 64.515625 
Q 56.59375 54.828125 56.59375 36.375 
Q 56.59375 19.140625 48.40625 8.859375 
Q 40.234375 -1.421875 26.421875 -1.421875 
Q 22.703125 -1.421875 18.890625 -0.6875 
Q 15.09375 0.046875 10.984375 1.515625 
z
M 30.609375 32.421875 
Q 37.25 32.421875 41.125 36.953125 
Q 45.015625 41.5 45.015625 49.421875 
Q 45.015625 57.28125 41.125 61.84375 
Q 37.25 66.40625 30.609375 66.40625 
Q 23.96875 66.40625 20.09375 61.84375 
Q 16.21875 57.28125 16.21875 49.421875 
Q 16.21875 41.5 20.09375 36.953125 
Q 23.96875 32.421875 30.609375 32.421875 
z
" id="DejaVuSans-57"/>
       </defs>
       <use xlink:href="#DejaVuSans-57"/>
      </g>
     </g>
    </g>
    <g id="xtick_11">
     <g id="line2d_11">
      <g>
       <use style="stroke:#000000;stroke-width:0.8;" x="322.848724" xlink:href="#m9b5df66511" y="504"/>
      </g>
     </g>
     <g id="text_11">
      <!-- 10 -->
      <g transform="translate(316.486224 518.598438)scale(0.1 -0.1)">
       <use xlink:href="#DejaVuSans-49"/>
       <use x="63.623047" xlink:href="#DejaVuSans-48"/>
      </g>
     </g>
    </g>
    <g id="xtick_12">
     <g id="line2d_12">
      <g>
       <use style="stroke:#000000;stroke-width:0.8;" x="338.888969" xlink:href="#m9b5df66511" y="504"/>
      </g>
     </g>
     <g id="text_12">
      <!-- 11 -->
      <g transform="translate(332.526469 518.598438)scale(0.1 -0.1)">
       <use xlink:href="#DejaVuSans-49"/>
       <use x="63.623047" xlink:href="#DejaVuSans-49"/>
      </g>
     </g>
    </g>
    <g id="xtick_13">
     <g id="line2d_13">
      <g>
       <use style="stroke:#000000;stroke-width:0.8;" x="354.929213" xlink:href="#m9b5df66511" y="504"/>
      </g>
     </g>
     <g id="text_13">
      <!-- 12 -->
      <g transform="translate(348.566713 518.598438)scale(0.1 -0.1)">
       <use xlink:href="#DejaVuSans-49"/>
       <use x="63.623047" xlink:href="#DejaVuSans-50"/>
      </g>
     </g>
    </g>
    <g id="xtick_14">
     <g id="line2d_14">
      <g>
       <use style="stroke:#000000;stroke-width:0.8;" x="370.969457" xlink:href="#m9b5df66511" y="504"/>
      </g>
     </g>
     <g id="text_14">
      <!-- 13 -->
      <g transform="translate(364.606957 518.598438)scale(0.1 -0.1)">
       <use xlink:href="#DejaVuSans-49"/>
       <use x="63.623047" xlink:href="#DejaVuSans-51"/>
      </g>
     </g>
    </g>
    <g id="xtick_15">
     <g id="line2d_15">
      <g>
       <use style="stroke:#000000;stroke-width:0.8;" x="387.009702" xlink:href="#m9b5df66511" y="504"/>
      </g>
     </g>
     <g id="text_15">
      <!-- 14 -->
      <g transform="translate(380.647202 518.598438)scale(0.1 -0.1)">
       <use xlink:href="#DejaVuSans-49"/>
       <use x="63.623047" xlink:href="#DejaVuSans-52"/>
      </g>
     </g>
    </g>
    <g id="xtick_16">
     <g id="line2d_16">
      <g>
       <use style="stroke:#000000;stroke-width:0.8;" x="403.049946" xlink:href="#m9b5df66511" y="504"/>
      </g>
     </g>
     <g id="text_16">
      <!-- 15 -->
      <g transform="translate(396.687446 518.598438)scale(0.1 -0.1)">
       <use xlink:href="#DejaVuSans-49"/>
       <use x="63.623047" xlink:href="#DejaVuSans-53"/>
      </g>
     </g>
    </g>
    <g id="xtick_17">
     <g id="line2d_17">
      <g>
       <use style="stroke:#000000;stroke-width:0.8;" x="419.09019" xlink:href="#m9b5df66511" y="504"/>
      </g>
     </g>
     <g id="text_17">
      <!-- 16 -->
      <g transform="translate(412.72769 518.598438)scale(0.1 -0.1)">
       <use xlink:href="#DejaVuSans-49"/>
       <use x="63.623047" xlink:href="#DejaVuSans-54"/>
      </g>
     </g>
    </g>
    <g id="xtick_18">
     <g id="line2d_18">
      <g>
       <use style="stroke:#000000;stroke-width:0.8;" x="435.130435" xlink:href="#m9b5df66511" y="504"/>
      </g>
     </g>
     <g id="text_18">
      <!-- 17 -->
      <g transform="translate(428.767935 518.598438)scale(0.1 -0.1)">
       <use xlink:href="#DejaVuSans-49"/>
       <use x="63.623047" xlink:href="#DejaVuSans-55"/>
      </g>
     </g>
    </g>
    <g id="xtick_19">
     <g id="line2d_19">
      <g>
       <use style="stroke:#000000;stroke-width:0.8;" x="451.170679" xlink:href="#m9b5df66511" y="504"/>
      </g>
     </g>
     <g id="text_19">
      <!-- 18 -->
      <g transform="translate(444.808179 518.598438)scale(0.1 -0.1)">
       <use xlink:href="#DejaVuSans-49"/>
       <use x="63.623047" xlink:href="#DejaVuSans-56"/>
      </g>
     </g>
    </g>
    <g id="xtick_20">
     <g id="line2d_20">
      <g>
       <use style="stroke:#000000;stroke-width:0.8;" x="467.210923" xlink:href="#m9b5df66511" y="504"/>
      </g>
     </g>
     <g id="text_20">
      <!-- 19 -->
      <g transform="translate(460.848423 518.598438)scale(0.1 -0.1)">
       <use xlink:href="#DejaVuSans-49"/>
       <use x="63.623047" xlink:href="#DejaVuSans-57"/>
      </g>
     </g>
    </g>
    <g id="xtick_21">
     <g id="line2d_21">
      <g>
       <use style="stroke:#000000;stroke-width:0.8;" x="483.251168" xlink:href="#m9b5df66511" y="504"/>
      </g>
     </g>
     <g id="text_21">
      <!-- 20 -->
      <g transform="translate(476.888668 518.598438)scale(0.1 -0.1)">
       <use xlink:href="#DejaVuSans-50"/>
       <use x="63.623047" xlink:href="#DejaVuSans-48"/>
      </g>
     </g>
    </g>
    <g id="xtick_22">
     <g id="line2d_22">
      <g>
       <use style="stroke:#000000;stroke-width:0.8;" x="499.291412" xlink:href="#m9b5df66511" y="504"/>
      </g>
     </g>
     <g id="text_22">
      <!-- 21 -->
      <g transform="translate(492.928912 518.598438)scale(0.1 -0.1)">
       <use xlink:href="#DejaVuSans-50"/>
       <use x="63.623047" xlink:href="#DejaVuSans-49"/>
      </g>
     </g>
    </g>
    <g id="xtick_23">
     <g id="line2d_23">
      <g>
       <use style="stroke:#000000;stroke-width:0.8;" x="515.331656" xlink:href="#m9b5df66511" y="504"/>
      </g>
     </g>
     <g id="text_23">
      <!-- 22 -->
      <g transform="translate(508.969156 518.598438)scale(0.1 -0.1)">
       <use xlink:href="#DejaVuSans-50"/>
       <use x="63.623047" xlink:href="#DejaVuSans-50"/>
      </g>
     </g>
    </g>
    <g id="xtick_24">
     <g id="line2d_24">
      <g>
       <use style="stroke:#000000;stroke-width:0.8;" x="531.371901" xlink:href="#m9b5df66511" y="504"/>
      </g>
     </g>
     <g id="text_24">
      <!-- 23 -->
      <g transform="translate(525.009401 518.598438)scale(0.1 -0.1)">
       <use xlink:href="#DejaVuSans-50"/>
       <use x="63.623047" xlink:href="#DejaVuSans-51"/>
      </g>
     </g>
    </g>
    <g id="text_25">
     <!-- Hour -->
     <g transform="translate(332.456591 533.79625)scale(0.12 -0.12)">
      <defs>
       <path d="M 9.8125 72.90625 
L 19.671875 72.90625 
L 19.671875 43.015625 
L 55.515625 43.015625 
L 55.515625 72.90625 
L 65.375 72.90625 
L 65.375 0 
L 55.515625 0 
L 55.515625 34.71875 
L 19.671875 34.71875 
L 19.671875 0 
L 9.8125 0 
z
" id="DejaVuSans-72"/>
       <path d="M 30.609375 48.390625 
Q 23.390625 48.390625 19.1875 42.75 
Q 14.984375 37.109375 14.984375 27.296875 
Q 14.984375 17.484375 19.15625 11.84375 
Q 23.34375 6.203125 30.609375 6.203125 
Q 37.796875 6.203125 41.984375 11.859375 
Q 46.1875 17.53125 46.1875 27.296875 
Q 46.1875 37.015625 41.984375 42.703125 
Q 37.796875 48.390625 30.609375 48.390625 
z
M 30.609375 56 
Q 42.328125 56 49.015625 48.375 
Q 55.71875 40.765625 55.71875 27.296875 
Q 55.71875 13.875 49.015625 6.21875 
Q 42.328125 -1.421875 30.609375 -1.421875 
Q 18.84375 -1.421875 12.171875 6.21875 
Q 5.515625 13.875 5.515625 27.296875 
Q 5.515625 40.765625 12.171875 48.375 
Q 18.84375 56 30.609375 56 
z
" id="DejaVuSans-111"/>
       <path d="M 8.5 21.578125 
L 8.5 54.6875 
L 17.484375 54.6875 
L 17.484375 21.921875 
Q 17.484375 14.15625 20.5 10.265625 
Q 23.53125 6.390625 29.59375 6.390625 
Q 36.859375 6.390625 41.078125 11.03125 
Q 45.3125 15.671875 45.3125 23.6875 
L 45.3125 54.6875 
L 54.296875 54.6875 
L 54.296875 0 
L 45.3125 0 
L 45.3125 8.40625 
Q 42.046875 3.421875 37.71875 1 
Q 33.40625 -1.421875 27.6875 -1.421875 
Q 18.265625 -1.421875 13.375 4.4375 
Q 8.5 10.296875 8.5 21.578125 
z
M 31.109375 56 
z
" id="DejaVuSans-117"/>
       <path d="M 41.109375 46.296875 
Q 39.59375 47.171875 37.8125 47.578125 
Q 36.03125 48 33.890625 48 
Q 26.265625 48 22.1875 43.046875 
Q 18.109375 38.09375 18.109375 28.8125 
L 18.109375 0 
L 9.078125 0 
L 9.078125 54.6875 
L 18.109375 54.6875 
L 18.109375 46.1875 
Q 20.953125 51.171875 25.484375 53.578125 
Q 30.03125 56 36.53125 56 
Q 37.453125 56 38.578125 55.875 
Q 39.703125 55.765625 41.0625 55.515625 
z
" id="DejaVuSans-114"/>
      </defs>
      <use xlink:href="#DejaVuSans-72"/>
      <use x="75.195312" xlink:href="#DejaVuSans-111"/>
      <use x="136.376953" xlink:href="#DejaVuSans-117"/>
      <use x="199.755859" xlink:href="#DejaVuSans-114"/>
     </g>
    </g>
   </g>
   <g id="matplotlib.axis_2">
    <g id="ytick_1">
     <g id="line2d_25">
      <defs>
       <path d="M 0 0 
L -3.5 0 
" id="mf323c3fec1" style="stroke:#000000;stroke-width:0.8;"/>
      </defs>
      <g>
       <use style="stroke:#000000;stroke-width:0.8;" x="144" xlink:href="#mf323c3fec1" y="457.876364"/>
      </g>
     </g>
     <g id="text_26">
      <!-- 10 -->
      <g transform="translate(124.275 461.675582)scale(0.1 -0.1)">
       <use xlink:href="#DejaVuSans-49"/>
       <use x="63.623047" xlink:href="#DejaVuSans-48"/>
      </g>
     </g>
    </g>
    <g id="ytick_2">
     <g id="line2d_26">
      <g>
       <use style="stroke:#000000;stroke-width:0.8;" x="144" xlink:href="#mf323c3fec1" y="391.985455"/>
      </g>
     </g>
     <g id="text_27">
      <!-- 20 -->
      <g transform="translate(124.275 395.784673)scale(0.1 -0.1)">
       <use xlink:href="#DejaVuSans-50"/>
       <use x="63.623047" xlink:href="#DejaVuSans-48"/>
      </g>
     </g>
    </g>
    <g id="ytick_3">
     <g id="line2d_27">
      <g>
       <use style="stroke:#000000;stroke-width:0.8;" x="144" xlink:href="#mf323c3fec1" y="326.094545"/>
      </g>
     </g>
     <g id="text_28">
      <!-- 30 -->
      <g transform="translate(124.275 329.893764)scale(0.1 -0.1)">
       <use xlink:href="#DejaVuSans-51"/>
       <use x="63.623047" xlink:href="#DejaVuSans-48"/>
      </g>
     </g>
    </g>
    <g id="ytick_4">
     <g id="line2d_28">
      <g>
       <use style="stroke:#000000;stroke-width:0.8;" x="144" xlink:href="#mf323c3fec1" y="260.203636"/>
      </g>
     </g>
     <g id="text_29">
      <!-- 40 -->
      <g transform="translate(124.275 264.002855)scale(0.1 -0.1)">
       <use xlink:href="#DejaVuSans-52"/>
       <use x="63.623047" xlink:href="#DejaVuSans-48"/>
      </g>
     </g>
    </g>
    <g id="ytick_5">
     <g id="line2d_29">
      <g>
       <use style="stroke:#000000;stroke-width:0.8;" x="144" xlink:href="#mf323c3fec1" y="194.312727"/>
      </g>
     </g>
     <g id="text_30">
      <!-- 50 -->
      <g transform="translate(124.275 198.111946)scale(0.1 -0.1)">
       <use xlink:href="#DejaVuSans-53"/>
       <use x="63.623047" xlink:href="#DejaVuSans-48"/>
      </g>
     </g>
    </g>
    <g id="ytick_6">
     <g id="line2d_30">
      <g>
       <use style="stroke:#000000;stroke-width:0.8;" x="144" xlink:href="#mf323c3fec1" y="128.421818"/>
      </g>
     </g>
     <g id="text_31">
      <!-- 60 -->
      <g transform="translate(124.275 132.221037)scale(0.1 -0.1)">
       <use xlink:href="#DejaVuSans-54"/>
       <use x="63.623047" xlink:href="#DejaVuSans-48"/>
      </g>
     </g>
    </g>
    <g id="text_32">
     <!-- Number of tweets that are retweeted at least ten times -->
     <g transform="translate(117.779375 453.2025)rotate(-90)scale(0.12 -0.12)">
      <defs>
       <path d="M 9.8125 72.90625 
L 23.09375 72.90625 
L 55.421875 11.921875 
L 55.421875 72.90625 
L 64.984375 72.90625 
L 64.984375 0 
L 51.703125 0 
L 19.390625 60.984375 
L 19.390625 0 
L 9.8125 0 
z
" id="DejaVuSans-78"/>
       <path d="M 52 44.1875 
Q 55.375 50.25 60.0625 53.125 
Q 64.75 56 71.09375 56 
Q 79.640625 56 84.28125 50.015625 
Q 88.921875 44.046875 88.921875 33.015625 
L 88.921875 0 
L 79.890625 0 
L 79.890625 32.71875 
Q 79.890625 40.578125 77.09375 44.375 
Q 74.3125 48.1875 68.609375 48.1875 
Q 61.625 48.1875 57.5625 43.546875 
Q 53.515625 38.921875 53.515625 30.90625 
L 53.515625 0 
L 44.484375 0 
L 44.484375 32.71875 
Q 44.484375 40.625 41.703125 44.40625 
Q 38.921875 48.1875 33.109375 48.1875 
Q 26.21875 48.1875 22.15625 43.53125 
Q 18.109375 38.875 18.109375 30.90625 
L 18.109375 0 
L 9.078125 0 
L 9.078125 54.6875 
L 18.109375 54.6875 
L 18.109375 46.1875 
Q 21.1875 51.21875 25.484375 53.609375 
Q 29.78125 56 35.6875 56 
Q 41.65625 56 45.828125 52.96875 
Q 50 49.953125 52 44.1875 
z
" id="DejaVuSans-109"/>
       <path d="M 48.6875 27.296875 
Q 48.6875 37.203125 44.609375 42.84375 
Q 40.53125 48.484375 33.40625 48.484375 
Q 26.265625 48.484375 22.1875 42.84375 
Q 18.109375 37.203125 18.109375 27.296875 
Q 18.109375 17.390625 22.1875 11.75 
Q 26.265625 6.109375 33.40625 6.109375 
Q 40.53125 6.109375 44.609375 11.75 
Q 48.6875 17.390625 48.6875 27.296875 
z
M 18.109375 46.390625 
Q 20.953125 51.265625 25.265625 53.625 
Q 29.59375 56 35.59375 56 
Q 45.5625 56 51.78125 48.09375 
Q 58.015625 40.1875 58.015625 27.296875 
Q 58.015625 14.40625 51.78125 6.484375 
Q 45.5625 -1.421875 35.59375 -1.421875 
Q 29.59375 -1.421875 25.265625 0.953125 
Q 20.953125 3.328125 18.109375 8.203125 
L 18.109375 0 
L 9.078125 0 
L 9.078125 75.984375 
L 18.109375 75.984375 
z
" id="DejaVuSans-98"/>
       <path d="M 56.203125 29.59375 
L 56.203125 25.203125 
L 14.890625 25.203125 
Q 15.484375 15.921875 20.484375 11.0625 
Q 25.484375 6.203125 34.421875 6.203125 
Q 39.59375 6.203125 44.453125 7.46875 
Q 49.3125 8.734375 54.109375 11.28125 
L 54.109375 2.78125 
Q 49.265625 0.734375 44.1875 -0.34375 
Q 39.109375 -1.421875 33.890625 -1.421875 
Q 20.796875 -1.421875 13.15625 6.1875 
Q 5.515625 13.8125 5.515625 26.8125 
Q 5.515625 40.234375 12.765625 48.109375 
Q 20.015625 56 32.328125 56 
Q 43.359375 56 49.78125 48.890625 
Q 56.203125 41.796875 56.203125 29.59375 
z
M 47.21875 32.234375 
Q 47.125 39.59375 43.09375 43.984375 
Q 39.0625 48.390625 32.421875 48.390625 
Q 24.90625 48.390625 20.390625 44.140625 
Q 15.875 39.890625 15.1875 32.171875 
z
" id="DejaVuSans-101"/>
       <path id="DejaVuSans-32"/>
       <path d="M 37.109375 75.984375 
L 37.109375 68.5 
L 28.515625 68.5 
Q 23.6875 68.5 21.796875 66.546875 
Q 19.921875 64.59375 19.921875 59.515625 
L 19.921875 54.6875 
L 34.71875 54.6875 
L 34.71875 47.703125 
L 19.921875 47.703125 
L 19.921875 0 
L 10.890625 0 
L 10.890625 47.703125 
L 2.296875 47.703125 
L 2.296875 54.6875 
L 10.890625 54.6875 
L 10.890625 58.5 
Q 10.890625 67.625 15.140625 71.796875 
Q 19.390625 75.984375 28.609375 75.984375 
z
" id="DejaVuSans-102"/>
       <path d="M 18.3125 70.21875 
L 18.3125 54.6875 
L 36.8125 54.6875 
L 36.8125 47.703125 
L 18.3125 47.703125 
L 18.3125 18.015625 
Q 18.3125 11.328125 20.140625 9.421875 
Q 21.96875 7.515625 27.59375 7.515625 
L 36.8125 7.515625 
L 36.8125 0 
L 27.59375 0 
Q 17.1875 0 13.234375 3.875 
Q 9.28125 7.765625 9.28125 18.015625 
L 9.28125 47.703125 
L 2.6875 47.703125 
L 2.6875 54.6875 
L 9.28125 54.6875 
L 9.28125 70.21875 
z
" id="DejaVuSans-116"/>
       <path d="M 4.203125 54.6875 
L 13.1875 54.6875 
L 24.421875 12.015625 
L 35.59375 54.6875 
L 46.1875 54.6875 
L 57.421875 12.015625 
L 68.609375 54.6875 
L 77.59375 54.6875 
L 63.28125 0 
L 52.6875 0 
L 40.921875 44.828125 
L 29.109375 0 
L 18.5 0 
z
" id="DejaVuSans-119"/>
       <path d="M 44.28125 53.078125 
L 44.28125 44.578125 
Q 40.484375 46.53125 36.375 47.5 
Q 32.28125 48.484375 27.875 48.484375 
Q 21.1875 48.484375 17.84375 46.4375 
Q 14.5 44.390625 14.5 40.28125 
Q 14.5 37.15625 16.890625 35.375 
Q 19.28125 33.59375 26.515625 31.984375 
L 29.59375 31.296875 
Q 39.15625 29.25 43.1875 25.515625 
Q 47.21875 21.78125 47.21875 15.09375 
Q 47.21875 7.46875 41.1875 3.015625 
Q 35.15625 -1.421875 24.609375 -1.421875 
Q 20.21875 -1.421875 15.453125 -0.5625 
Q 10.6875 0.296875 5.421875 2 
L 5.421875 11.28125 
Q 10.40625 8.6875 15.234375 7.390625 
Q 20.0625 6.109375 24.8125 6.109375 
Q 31.15625 6.109375 34.5625 8.28125 
Q 37.984375 10.453125 37.984375 14.40625 
Q 37.984375 18.0625 35.515625 20.015625 
Q 33.0625 21.96875 24.703125 23.78125 
L 21.578125 24.515625 
Q 13.234375 26.265625 9.515625 29.90625 
Q 5.8125 33.546875 5.8125 39.890625 
Q 5.8125 47.609375 11.28125 51.796875 
Q 16.75 56 26.8125 56 
Q 31.78125 56 36.171875 55.265625 
Q 40.578125 54.546875 44.28125 53.078125 
z
" id="DejaVuSans-115"/>
       <path d="M 54.890625 33.015625 
L 54.890625 0 
L 45.90625 0 
L 45.90625 32.71875 
Q 45.90625 40.484375 42.875 44.328125 
Q 39.84375 48.1875 33.796875 48.1875 
Q 26.515625 48.1875 22.3125 43.546875 
Q 18.109375 38.921875 18.109375 30.90625 
L 18.109375 0 
L 9.078125 0 
L 9.078125 75.984375 
L 18.109375 75.984375 
L 18.109375 46.1875 
Q 21.34375 51.125 25.703125 53.5625 
Q 30.078125 56 35.796875 56 
Q 45.21875 56 50.046875 50.171875 
Q 54.890625 44.34375 54.890625 33.015625 
z
" id="DejaVuSans-104"/>
       <path d="M 34.28125 27.484375 
Q 23.390625 27.484375 19.1875 25 
Q 14.984375 22.515625 14.984375 16.5 
Q 14.984375 11.71875 18.140625 8.90625 
Q 21.296875 6.109375 26.703125 6.109375 
Q 34.1875 6.109375 38.703125 11.40625 
Q 43.21875 16.703125 43.21875 25.484375 
L 43.21875 27.484375 
z
M 52.203125 31.203125 
L 52.203125 0 
L 43.21875 0 
L 43.21875 8.296875 
Q 40.140625 3.328125 35.546875 0.953125 
Q 30.953125 -1.421875 24.3125 -1.421875 
Q 15.921875 -1.421875 10.953125 3.296875 
Q 6 8.015625 6 15.921875 
Q 6 25.140625 12.171875 29.828125 
Q 18.359375 34.515625 30.609375 34.515625 
L 43.21875 34.515625 
L 43.21875 35.40625 
Q 43.21875 41.609375 39.140625 45 
Q 35.0625 48.390625 27.6875 48.390625 
Q 23 48.390625 18.546875 47.265625 
Q 14.109375 46.140625 10.015625 43.890625 
L 10.015625 52.203125 
Q 14.9375 54.109375 19.578125 55.046875 
Q 24.21875 56 28.609375 56 
Q 40.484375 56 46.34375 49.84375 
Q 52.203125 43.703125 52.203125 31.203125 
z
" id="DejaVuSans-97"/>
       <path d="M 45.40625 46.390625 
L 45.40625 75.984375 
L 54.390625 75.984375 
L 54.390625 0 
L 45.40625 0 
L 45.40625 8.203125 
Q 42.578125 3.328125 38.25 0.953125 
Q 33.9375 -1.421875 27.875 -1.421875 
Q 17.96875 -1.421875 11.734375 6.484375 
Q 5.515625 14.40625 5.515625 27.296875 
Q 5.515625 40.1875 11.734375 48.09375 
Q 17.96875 56 27.875 56 
Q 33.9375 56 38.25 53.625 
Q 42.578125 51.265625 45.40625 46.390625 
z
M 14.796875 27.296875 
Q 14.796875 17.390625 18.875 11.75 
Q 22.953125 6.109375 30.078125 6.109375 
Q 37.203125 6.109375 41.296875 11.75 
Q 45.40625 17.390625 45.40625 27.296875 
Q 45.40625 37.203125 41.296875 42.84375 
Q 37.203125 48.484375 30.078125 48.484375 
Q 22.953125 48.484375 18.875 42.84375 
Q 14.796875 37.203125 14.796875 27.296875 
z
" id="DejaVuSans-100"/>
       <path d="M 9.421875 75.984375 
L 18.40625 75.984375 
L 18.40625 0 
L 9.421875 0 
z
" id="DejaVuSans-108"/>
       <path d="M 54.890625 33.015625 
L 54.890625 0 
L 45.90625 0 
L 45.90625 32.71875 
Q 45.90625 40.484375 42.875 44.328125 
Q 39.84375 48.1875 33.796875 48.1875 
Q 26.515625 48.1875 22.3125 43.546875 
Q 18.109375 38.921875 18.109375 30.90625 
L 18.109375 0 
L 9.078125 0 
L 9.078125 54.6875 
L 18.109375 54.6875 
L 18.109375 46.1875 
Q 21.34375 51.125 25.703125 53.5625 
Q 30.078125 56 35.796875 56 
Q 45.21875 56 50.046875 50.171875 
Q 54.890625 44.34375 54.890625 33.015625 
z
" id="DejaVuSans-110"/>
       <path d="M 9.421875 54.6875 
L 18.40625 54.6875 
L 18.40625 0 
L 9.421875 0 
z
M 9.421875 75.984375 
L 18.40625 75.984375 
L 18.40625 64.59375 
L 9.421875 64.59375 
z
" id="DejaVuSans-105"/>
      </defs>
      <use xlink:href="#DejaVuSans-78"/>
      <use x="74.804688" xlink:href="#DejaVuSans-117"/>
      <use x="138.183594" xlink:href="#DejaVuSans-109"/>
      <use x="235.595703" xlink:href="#DejaVuSans-98"/>
      <use x="299.072266" xlink:href="#DejaVuSans-101"/>
      <use x="360.595703" xlink:href="#DejaVuSans-114"/>
      <use x="401.708984" xlink:href="#DejaVuSans-32"/>
      <use x="433.496094" xlink:href="#DejaVuSans-111"/>
      <use x="494.677734" xlink:href="#DejaVuSans-102"/>
      <use x="529.882812" xlink:href="#DejaVuSans-32"/>
      <use x="561.669922" xlink:href="#DejaVuSans-116"/>
      <use x="600.878906" xlink:href="#DejaVuSans-119"/>
      <use x="682.666016" xlink:href="#DejaVuSans-101"/>
      <use x="744.189453" xlink:href="#DejaVuSans-101"/>
      <use x="805.712891" xlink:href="#DejaVuSans-116"/>
      <use x="844.921875" xlink:href="#DejaVuSans-115"/>
      <use x="897.021484" xlink:href="#DejaVuSans-32"/>
      <use x="928.808594" xlink:href="#DejaVuSans-116"/>
      <use x="968.017578" xlink:href="#DejaVuSans-104"/>
      <use x="1031.396484" xlink:href="#DejaVuSans-97"/>
      <use x="1092.675781" xlink:href="#DejaVuSans-116"/>
      <use x="1131.884766" xlink:href="#DejaVuSans-32"/>
      <use x="1163.671875" xlink:href="#DejaVuSans-97"/>
      <use x="1224.951172" xlink:href="#DejaVuSans-114"/>
      <use x="1263.814453" xlink:href="#DejaVuSans-101"/>
      <use x="1325.337891" xlink:href="#DejaVuSans-32"/>
      <use x="1357.125" xlink:href="#DejaVuSans-114"/>
      <use x="1395.988281" xlink:href="#DejaVuSans-101"/>
      <use x="1457.511719" xlink:href="#DejaVuSans-116"/>
      <use x="1496.720703" xlink:href="#DejaVuSans-119"/>
      <use x="1578.507812" xlink:href="#DejaVuSans-101"/>
      <use x="1640.03125" xlink:href="#DejaVuSans-101"/>
      <use x="1701.554688" xlink:href="#DejaVuSans-116"/>
      <use x="1740.763672" xlink:href="#DejaVuSans-101"/>
      <use x="1802.287109" xlink:href="#DejaVuSans-100"/>
      <use x="1865.763672" xlink:href="#DejaVuSans-32"/>
      <use x="1897.550781" xlink:href="#DejaVuSans-97"/>
      <use x="1958.830078" xlink:href="#DejaVuSans-116"/>
      <use x="1998.039062" xlink:href="#DejaVuSans-32"/>
      <use x="2029.826172" xlink:href="#DejaVuSans-108"/>
      <use x="2057.609375" xlink:href="#DejaVuSans-101"/>
      <use x="2119.132812" xlink:href="#DejaVuSans-97"/>
      <use x="2180.412109" xlink:href="#DejaVuSans-115"/>
      <use x="2232.511719" xlink:href="#DejaVuSans-116"/>
      <use x="2271.720703" xlink:href="#DejaVuSans-32"/>
      <use x="2303.507812" xlink:href="#DejaVuSans-116"/>
      <use x="2342.716797" xlink:href="#DejaVuSans-101"/>
      <use x="2404.240234" xlink:href="#DejaVuSans-110"/>
      <use x="2467.619141" xlink:href="#DejaVuSans-32"/>
      <use x="2499.40625" xlink:href="#DejaVuSans-116"/>
      <use x="2538.615234" xlink:href="#DejaVuSans-105"/>
      <use x="2566.398438" xlink:href="#DejaVuSans-109"/>
      <use x="2663.810547" xlink:href="#DejaVuSans-101"/>
      <use x="2725.333984" xlink:href="#DejaVuSans-115"/>
     </g>
    </g>
   </g>
   <g id="line2d_31">
    <path clip-path="url(#pfdfdc32b7d)" d="M 162.446281 378.807273 
L 178.486525 424.930909 
L 194.52677 431.52 
L 210.567014 378.807273 
L 226.607258 418.341818 
L 242.647503 332.683636 
L 258.687747 464.465455 
L 274.727991 398.574545 
L 290.768236 319.505455 
L 306.80848 141.6 
L 322.848724 88.887273 
L 338.888969 299.738182 
L 354.929213 326.094545 
L 370.969457 378.807273 
L 387.009702 411.752727 
L 403.049946 312.916364 
L 419.09019 345.861818 
L 435.130435 293.149091 
L 451.170679 405.163636 
L 467.210923 332.683636 
L 483.251168 194.312727 
L 499.291412 365.629091 
L 515.331656 326.094545 
L 531.371901 279.970909 
" style="fill:none;stroke:#0173b2;stroke-linecap:square;stroke-width:1.5;"/>
   </g>
   <g id="line2d_32">
    <path clip-path="url(#pfdfdc32b7d)" d="M 162.446281 405.163636 
L 178.486525 391.985455 
L 194.52677 359.04 
L 210.567014 372.218182 
L 226.607258 457.876364 
L 242.647503 444.698182 
L 258.687747 464.465455 
L 274.727991 359.04 
L 290.768236 326.094545 
L 306.80848 88.887273 
L 322.848724 148.189091 
L 338.888969 187.723636 
L 354.929213 319.505455 
L 370.969457 332.683636 
L 387.009702 359.04 
L 403.049946 332.683636 
L 419.09019 352.450909 
L 435.130435 385.396364 
L 451.170679 299.738182 
L 467.210923 339.272727 
L 483.251168 266.792727 
L 499.291412 214.08 
L 515.331656 273.381818 
L 531.371901 187.723636 
" style="fill:none;stroke:#de8f05;stroke-linecap:square;stroke-width:1.5;"/>
   </g>
   <g id="line2d_33">
    <path clip-path="url(#pfdfdc32b7d)" d="M 162.446281 359.04 
L 178.486525 391.985455 
L 194.52677 431.52 
L 210.567014 312.916364 
L 226.607258 451.287273 
L 242.647503 385.396364 
L 258.687747 438.109091 
L 274.727991 424.930909 
L 290.768236 194.312727 
L 306.80848 121.832727 
L 322.848724 161.367273 
L 338.888969 312.916364 
L 354.929213 365.629091 
L 370.969457 352.450909 
L 387.009702 326.094545 
L 403.049946 378.807273 
L 419.09019 312.916364 
L 435.130435 279.970909 
L 451.170679 306.327273 
L 467.210923 339.272727 
L 483.251168 253.614545 
L 499.291412 312.916364 
L 515.331656 299.738182 
L 531.371901 240.436364 
" style="fill:none;stroke:#029e73;stroke-linecap:square;stroke-width:1.5;"/>
   </g>
   <g id="line2d_34">
    <path clip-path="url(#pfdfdc32b7d)" d="M 162.446281 359.04 
L 178.486525 312.916364 
L 194.52677 385.396364 
L 210.567014 444.698182 
L 226.607258 484.232727 
L 242.647503 424.930909 
L 258.687747 418.341818 
L 274.727991 444.698182 
L 290.768236 378.807273 
L 306.80848 148.189091 
L 322.848724 154.778182 
L 338.888969 240.436364 
L 354.929213 359.04 
L 370.969457 365.629091 
L 387.009702 200.901818 
L 403.049946 326.094545 
L 419.09019 253.614545 
L 435.130435 339.272727 
L 451.170679 326.094545 
L 467.210923 326.094545 
L 483.251168 240.436364 
L 499.291412 306.327273 
L 515.331656 293.149091 
L 531.371901 365.629091 
" style="fill:none;stroke:#d55e00;stroke-linecap:square;stroke-width:1.5;"/>
   </g>
   <g id="line2d_35">
    <path clip-path="url(#pfdfdc32b7d)" d="M 162.446281 352.450909 
L 178.486525 359.04 
L 194.52677 391.985455 
L 210.567014 411.752727 
L 226.607258 477.643636 
L 242.647503 411.752727 
L 258.687747 431.52 
L 274.727991 451.287273 
L 290.768236 451.287273 
L 306.80848 95.476364 
L 322.848724 121.832727 
L 338.888969 207.490909 
L 354.929213 378.807273 
L 370.969457 339.272727 
L 387.009702 385.396364 
L 403.049946 405.163636 
L 419.09019 385.396364 
L 435.130435 339.272727 
L 451.170679 293.149091 
L 467.210923 365.629091 
L 483.251168 326.094545 
L 499.291412 345.861818 
L 515.331656 431.52 
L 531.371901 418.341818 
" style="fill:none;stroke:#cc78bc;stroke-linecap:square;stroke-width:1.5;"/>
   </g>
   <g id="line2d_36">
    <path clip-path="url(#pfdfdc32b7d)" d="M 162.446281 418.341818 
L 178.486525 444.698182 
L 194.52677 411.752727 
L 210.567014 444.698182 
L 226.607258 418.341818 
L 242.647503 411.752727 
L 258.687747 484.232727 
L 274.727991 451.287273 
L 290.768236 359.04 
L 306.80848 214.08 
L 322.848724 194.312727 
L 338.888969 332.683636 
L 354.929213 385.396364 
L 370.969457 339.272727 
L 387.009702 326.094545 
L 403.049946 345.861818 
L 419.09019 279.970909 
L 435.130435 391.985455 
L 451.170679 405.163636 
L 467.210923 385.396364 
L 483.251168 385.396364 
L 499.291412 306.327273 
L 515.331656 339.272727 
L 531.371901 279.970909 
" style="fill:none;stroke:#ca9161;stroke-linecap:square;stroke-width:1.5;"/>
   </g>
   <g id="line2d_37">
    <path clip-path="url(#pfdfdc32b7d)" d="M 162.446281 385.396364 
L 178.486525 273.381818 
L 194.52677 418.341818 
L 210.567014 359.04 
L 226.607258 471.054545 
L 242.647503 418.341818 
L 258.687747 411.752727 
L 274.727991 457.876364 
L 290.768236 411.752727 
L 306.80848 187.723636 
L 322.848724 194.312727 
L 338.888969 332.683636 
L 354.929213 398.574545 
L 370.969457 339.272727 
L 387.009702 411.752727 
L 403.049946 253.614545 
L 419.09019 312.916364 
L 435.130435 266.792727 
L 451.170679 345.861818 
L 467.210923 299.738182 
L 483.251168 332.683636 
L 499.291412 279.970909 
L 515.331656 286.56 
L 531.371901 312.916364 
" style="fill:none;stroke:#fbafe4;stroke-linecap:square;stroke-width:1.5;"/>
   </g>
   <g id="line2d_38"/>
   <g id="line2d_39"/>
   <g id="line2d_40"/>
   <g id="line2d_41"/>
   <g id="line2d_42"/>
   <g id="line2d_43"/>
   <g id="line2d_44"/>
   <g id="patch_3">
    <path d="M 144 504 
L 144 69.12 
" style="fill:none;stroke:#000000;stroke-linecap:square;stroke-linejoin:miter;stroke-width:0.8;"/>
   </g>
   <g id="patch_4">
    <path d="M 549.818182 504 
L 549.818182 69.12 
" style="fill:none;stroke:#000000;stroke-linecap:square;stroke-linejoin:miter;stroke-width:0.8;"/>
   </g>
   <g id="patch_5">
    <path d="M 144 504 
L 549.818182 504 
" style="fill:none;stroke:#000000;stroke-linecap:square;stroke-linejoin:miter;stroke-width:0.8;"/>
   </g>
   <g id="patch_6">
    <path d="M 144 69.12 
L 549.818182 69.12 
" style="fill:none;stroke:#000000;stroke-linecap:square;stroke-linejoin:miter;stroke-width:0.8;"/>
   </g>
   <g id="legend_1">
    <g id="patch_7">
     <path d="M 151 194.545 
L 204.801562 194.545 
Q 206.801562 194.545 206.801562 192.545 
L 206.801562 76.12 
Q 206.801562 74.12 204.801562 74.12 
L 151 74.12 
Q 149 74.12 149 76.12 
L 149 192.545 
Q 149 194.545 151 194.545 
z
" style="fill:#ffffff;opacity:0.8;stroke:#cccccc;stroke-linejoin:miter;"/>
    </g>
    <g id="text_33">
     <!-- weekday -->
     <g transform="translate(155.565625 85.718437)scale(0.1 -0.1)">
      <defs>
       <path d="M 9.078125 75.984375 
L 18.109375 75.984375 
L 18.109375 31.109375 
L 44.921875 54.6875 
L 56.390625 54.6875 
L 27.390625 29.109375 
L 57.625 0 
L 45.90625 0 
L 18.109375 26.703125 
L 18.109375 0 
L 9.078125 0 
z
" id="DejaVuSans-107"/>
       <path d="M 32.171875 -5.078125 
Q 28.375 -14.84375 24.75 -17.8125 
Q 21.140625 -20.796875 15.09375 -20.796875 
L 7.90625 -20.796875 
L 7.90625 -13.28125 
L 13.1875 -13.28125 
Q 16.890625 -13.28125 18.9375 -11.515625 
Q 21 -9.765625 23.484375 -3.21875 
L 25.09375 0.875 
L 2.984375 54.6875 
L 12.5 54.6875 
L 29.59375 11.921875 
L 46.6875 54.6875 
L 56.203125 54.6875 
z
" id="DejaVuSans-121"/>
      </defs>
      <use xlink:href="#DejaVuSans-119"/>
      <use x="81.787109" xlink:href="#DejaVuSans-101"/>
      <use x="143.310547" xlink:href="#DejaVuSans-101"/>
      <use x="204.833984" xlink:href="#DejaVuSans-107"/>
      <use x="262.744141" xlink:href="#DejaVuSans-100"/>
      <use x="326.220703" xlink:href="#DejaVuSans-97"/>
      <use x="387.5" xlink:href="#DejaVuSans-121"/>
     </g>
    </g>
    <g id="line2d_45">
     <path d="M 153 96.896563 
L 173 96.896563 
" style="fill:none;stroke:#0173b2;stroke-linecap:square;stroke-width:1.5;"/>
    </g>
    <g id="line2d_46"/>
    <g id="text_34">
     <!-- Mon -->
     <g transform="translate(181 100.396563)scale(0.1 -0.1)">
      <defs>
       <path d="M 9.8125 72.90625 
L 24.515625 72.90625 
L 43.109375 23.296875 
L 61.8125 72.90625 
L 76.515625 72.90625 
L 76.515625 0 
L 66.890625 0 
L 66.890625 64.015625 
L 48.09375 14.015625 
L 38.1875 14.015625 
L 19.390625 64.015625 
L 19.390625 0 
L 9.8125 0 
z
" id="DejaVuSans-77"/>
      </defs>
      <use xlink:href="#DejaVuSans-77"/>
      <use x="86.279297" xlink:href="#DejaVuSans-111"/>
      <use x="147.460938" xlink:href="#DejaVuSans-110"/>
     </g>
    </g>
    <g id="line2d_47">
     <path d="M 153 111.574688 
L 173 111.574688 
" style="fill:none;stroke:#de8f05;stroke-linecap:square;stroke-width:1.5;"/>
    </g>
    <g id="line2d_48"/>
    <g id="text_35">
     <!-- Tue -->
     <g transform="translate(181 115.074688)scale(0.1 -0.1)">
      <defs>
       <path d="M -0.296875 72.90625 
L 61.375 72.90625 
L 61.375 64.59375 
L 35.5 64.59375 
L 35.5 0 
L 25.59375 0 
L 25.59375 64.59375 
L -0.296875 64.59375 
z
" id="DejaVuSans-84"/>
      </defs>
      <use xlink:href="#DejaVuSans-84"/>
      <use x="45.958984" xlink:href="#DejaVuSans-117"/>
      <use x="109.337891" xlink:href="#DejaVuSans-101"/>
     </g>
    </g>
    <g id="line2d_49">
     <path d="M 153 126.252813 
L 173 126.252813 
" style="fill:none;stroke:#029e73;stroke-linecap:square;stroke-width:1.5;"/>
    </g>
    <g id="line2d_50"/>
    <g id="text_36">
     <!-- Wed -->
     <g transform="translate(181 129.752813)scale(0.1 -0.1)">
      <defs>
       <path d="M 3.328125 72.90625 
L 13.28125 72.90625 
L 28.609375 11.28125 
L 43.890625 72.90625 
L 54.984375 72.90625 
L 70.3125 11.28125 
L 85.59375 72.90625 
L 95.609375 72.90625 
L 77.296875 0 
L 64.890625 0 
L 49.515625 63.28125 
L 33.984375 0 
L 21.578125 0 
z
" id="DejaVuSans-87"/>
      </defs>
      <use xlink:href="#DejaVuSans-87"/>
      <use x="93.001953" xlink:href="#DejaVuSans-101"/>
      <use x="154.525391" xlink:href="#DejaVuSans-100"/>
     </g>
    </g>
    <g id="line2d_51">
     <path d="M 153 140.930938 
L 173 140.930938 
" style="fill:none;stroke:#d55e00;stroke-linecap:square;stroke-width:1.5;"/>
    </g>
    <g id="line2d_52"/>
    <g id="text_37">
     <!-- Thu -->
     <g transform="translate(181 144.430938)scale(0.1 -0.1)">
      <use xlink:href="#DejaVuSans-84"/>
      <use x="61.083984" xlink:href="#DejaVuSans-104"/>
      <use x="124.462891" xlink:href="#DejaVuSans-117"/>
     </g>
    </g>
    <g id="line2d_53">
     <path d="M 153 155.609063 
L 173 155.609063 
" style="fill:none;stroke:#cc78bc;stroke-linecap:square;stroke-width:1.5;"/>
    </g>
    <g id="line2d_54"/>
    <g id="text_38">
     <!-- Fri -->
     <g transform="translate(181 159.109063)scale(0.1 -0.1)">
      <defs>
       <path d="M 9.8125 72.90625 
L 51.703125 72.90625 
L 51.703125 64.59375 
L 19.671875 64.59375 
L 19.671875 43.109375 
L 48.578125 43.109375 
L 48.578125 34.8125 
L 19.671875 34.8125 
L 19.671875 0 
L 9.8125 0 
z
" id="DejaVuSans-70"/>
      </defs>
      <use xlink:href="#DejaVuSans-70"/>
      <use x="50.269531" xlink:href="#DejaVuSans-114"/>
      <use x="91.382812" xlink:href="#DejaVuSans-105"/>
     </g>
    </g>
    <g id="line2d_55">
     <path d="M 153 170.287188 
L 173 170.287188 
" style="fill:none;stroke:#ca9161;stroke-linecap:square;stroke-width:1.5;"/>
    </g>
    <g id="line2d_56"/>
    <g id="text_39">
     <!-- Sat -->
     <g transform="translate(181 173.787188)scale(0.1 -0.1)">
      <defs>
       <path d="M 53.515625 70.515625 
L 53.515625 60.890625 
Q 47.90625 63.578125 42.921875 64.890625 
Q 37.9375 66.21875 33.296875 66.21875 
Q 25.25 66.21875 20.875 63.09375 
Q 16.5 59.96875 16.5 54.203125 
Q 16.5 49.359375 19.40625 46.890625 
Q 22.3125 44.4375 30.421875 42.921875 
L 36.375 41.703125 
Q 47.40625 39.59375 52.65625 34.296875 
Q 57.90625 29 57.90625 20.125 
Q 57.90625 9.515625 50.796875 4.046875 
Q 43.703125 -1.421875 29.984375 -1.421875 
Q 24.8125 -1.421875 18.96875 -0.25 
Q 13.140625 0.921875 6.890625 3.21875 
L 6.890625 13.375 
Q 12.890625 10.015625 18.65625 8.296875 
Q 24.421875 6.59375 29.984375 6.59375 
Q 38.421875 6.59375 43.015625 9.90625 
Q 47.609375 13.234375 47.609375 19.390625 
Q 47.609375 24.75 44.3125 27.78125 
Q 41.015625 30.8125 33.5 32.328125 
L 27.484375 33.5 
Q 16.453125 35.6875 11.515625 40.375 
Q 6.59375 45.0625 6.59375 53.421875 
Q 6.59375 63.09375 13.40625 68.65625 
Q 20.21875 74.21875 32.171875 74.21875 
Q 37.3125 74.21875 42.625 73.28125 
Q 47.953125 72.359375 53.515625 70.515625 
z
" id="DejaVuSans-83"/>
      </defs>
      <use xlink:href="#DejaVuSans-83"/>
      <use x="63.476562" xlink:href="#DejaVuSans-97"/>
      <use x="124.755859" xlink:href="#DejaVuSans-116"/>
     </g>
    </g>
    <g id="line2d_57">
     <path d="M 153 184.965312 
L 173 184.965312 
" style="fill:none;stroke:#fbafe4;stroke-linecap:square;stroke-width:1.5;"/>
    </g>
    <g id="line2d_58"/>
    <g id="text_40">
     <!-- Sun -->
     <g transform="translate(181 188.465312)scale(0.1 -0.1)">
      <use xlink:href="#DejaVuSans-83"/>
      <use x="63.476562" xlink:href="#DejaVuSans-117"/>
      <use x="126.855469" xlink:href="#DejaVuSans-110"/>
     </g>
    </g>
   </g>
  </g>
  <g id="axes_2">
   <g id="patch_8">
    <path d="M 630.981818 504 
L 1036.8 504 
L 1036.8 69.12 
L 630.981818 69.12 
z
" style="fill:#ffffff;"/>
   </g>
   <g id="matplotlib.axis_3">
    <g id="xtick_25">
     <g id="line2d_59">
      <g>
       <use style="stroke:#000000;stroke-width:0.8;" x="649.428099" xlink:href="#m9b5df66511" y="504"/>
      </g>
     </g>
     <g id="text_41">
      <!-- 0 -->
      <g transform="translate(646.246849 518.598438)scale(0.1 -0.1)">
       <use xlink:href="#DejaVuSans-48"/>
      </g>
     </g>
    </g>
    <g id="xtick_26">
     <g id="line2d_60">
      <g>
       <use style="stroke:#000000;stroke-width:0.8;" x="665.468344" xlink:href="#m9b5df66511" y="504"/>
      </g>
     </g>
     <g id="text_42">
      <!-- 1 -->
      <g transform="translate(662.287094 518.598438)scale(0.1 -0.1)">
       <use xlink:href="#DejaVuSans-49"/>
      </g>
     </g>
    </g>
    <g id="xtick_27">
     <g id="line2d_61">
      <g>
       <use style="stroke:#000000;stroke-width:0.8;" x="681.508588" xlink:href="#m9b5df66511" y="504"/>
      </g>
     </g>
     <g id="text_43">
      <!-- 2 -->
      <g transform="translate(678.327338 518.598438)scale(0.1 -0.1)">
       <use xlink:href="#DejaVuSans-50"/>
      </g>
     </g>
    </g>
    <g id="xtick_28">
     <g id="line2d_62">
      <g>
       <use style="stroke:#000000;stroke-width:0.8;" x="697.548832" xlink:href="#m9b5df66511" y="504"/>
      </g>
     </g>
     <g id="text_44">
      <!-- 3 -->
      <g transform="translate(694.367582 518.598438)scale(0.1 -0.1)">
       <use xlink:href="#DejaVuSans-51"/>
      </g>
     </g>
    </g>
    <g id="xtick_29">
     <g id="line2d_63">
      <g>
       <use style="stroke:#000000;stroke-width:0.8;" x="713.589077" xlink:href="#m9b5df66511" y="504"/>
      </g>
     </g>
     <g id="text_45">
      <!-- 4 -->
      <g transform="translate(710.407827 518.598438)scale(0.1 -0.1)">
       <use xlink:href="#DejaVuSans-52"/>
      </g>
     </g>
    </g>
    <g id="xtick_30">
     <g id="line2d_64">
      <g>
       <use style="stroke:#000000;stroke-width:0.8;" x="729.629321" xlink:href="#m9b5df66511" y="504"/>
      </g>
     </g>
     <g id="text_46">
      <!-- 5 -->
      <g transform="translate(726.448071 518.598438)scale(0.1 -0.1)">
       <use xlink:href="#DejaVuSans-53"/>
      </g>
     </g>
    </g>
    <g id="xtick_31">
     <g id="line2d_65">
      <g>
       <use style="stroke:#000000;stroke-width:0.8;" x="745.669565" xlink:href="#m9b5df66511" y="504"/>
      </g>
     </g>
     <g id="text_47">
      <!-- 6 -->
      <g transform="translate(742.488315 518.598438)scale(0.1 -0.1)">
       <use xlink:href="#DejaVuSans-54"/>
      </g>
     </g>
    </g>
    <g id="xtick_32">
     <g id="line2d_66">
      <g>
       <use style="stroke:#000000;stroke-width:0.8;" x="761.70981" xlink:href="#m9b5df66511" y="504"/>
      </g>
     </g>
     <g id="text_48">
      <!-- 7 -->
      <g transform="translate(758.52856 518.598438)scale(0.1 -0.1)">
       <use xlink:href="#DejaVuSans-55"/>
      </g>
     </g>
    </g>
    <g id="xtick_33">
     <g id="line2d_67">
      <g>
       <use style="stroke:#000000;stroke-width:0.8;" x="777.750054" xlink:href="#m9b5df66511" y="504"/>
      </g>
     </g>
     <g id="text_49">
      <!-- 8 -->
      <g transform="translate(774.568804 518.598438)scale(0.1 -0.1)">
       <use xlink:href="#DejaVuSans-56"/>
      </g>
     </g>
    </g>
    <g id="xtick_34">
     <g id="line2d_68">
      <g>
       <use style="stroke:#000000;stroke-width:0.8;" x="793.790298" xlink:href="#m9b5df66511" y="504"/>
      </g>
     </g>
     <g id="text_50">
      <!-- 9 -->
      <g transform="translate(790.609048 518.598438)scale(0.1 -0.1)">
       <use xlink:href="#DejaVuSans-57"/>
      </g>
     </g>
    </g>
    <g id="xtick_35">
     <g id="line2d_69">
      <g>
       <use style="stroke:#000000;stroke-width:0.8;" x="809.830543" xlink:href="#m9b5df66511" y="504"/>
      </g>
     </g>
     <g id="text_51">
      <!-- 10 -->
      <g transform="translate(803.468043 518.598438)scale(0.1 -0.1)">
       <use xlink:href="#DejaVuSans-49"/>
       <use x="63.623047" xlink:href="#DejaVuSans-48"/>
      </g>
     </g>
    </g>
    <g id="xtick_36">
     <g id="line2d_70">
      <g>
       <use style="stroke:#000000;stroke-width:0.8;" x="825.870787" xlink:href="#m9b5df66511" y="504"/>
      </g>
     </g>
     <g id="text_52">
      <!-- 11 -->
      <g transform="translate(819.508287 518.598438)scale(0.1 -0.1)">
       <use xlink:href="#DejaVuSans-49"/>
       <use x="63.623047" xlink:href="#DejaVuSans-49"/>
      </g>
     </g>
    </g>
    <g id="xtick_37">
     <g id="line2d_71">
      <g>
       <use style="stroke:#000000;stroke-width:0.8;" x="841.911031" xlink:href="#m9b5df66511" y="504"/>
      </g>
     </g>
     <g id="text_53">
      <!-- 12 -->
      <g transform="translate(835.548531 518.598438)scale(0.1 -0.1)">
       <use xlink:href="#DejaVuSans-49"/>
       <use x="63.623047" xlink:href="#DejaVuSans-50"/>
      </g>
     </g>
    </g>
    <g id="xtick_38">
     <g id="line2d_72">
      <g>
       <use style="stroke:#000000;stroke-width:0.8;" x="857.951276" xlink:href="#m9b5df66511" y="504"/>
      </g>
     </g>
     <g id="text_54">
      <!-- 13 -->
      <g transform="translate(851.588776 518.598438)scale(0.1 -0.1)">
       <use xlink:href="#DejaVuSans-49"/>
       <use x="63.623047" xlink:href="#DejaVuSans-51"/>
      </g>
     </g>
    </g>
    <g id="xtick_39">
     <g id="line2d_73">
      <g>
       <use style="stroke:#000000;stroke-width:0.8;" x="873.99152" xlink:href="#m9b5df66511" y="504"/>
      </g>
     </g>
     <g id="text_55">
      <!-- 14 -->
      <g transform="translate(867.62902 518.598438)scale(0.1 -0.1)">
       <use xlink:href="#DejaVuSans-49"/>
       <use x="63.623047" xlink:href="#DejaVuSans-52"/>
      </g>
     </g>
    </g>
    <g id="xtick_40">
     <g id="line2d_74">
      <g>
       <use style="stroke:#000000;stroke-width:0.8;" x="890.031764" xlink:href="#m9b5df66511" y="504"/>
      </g>
     </g>
     <g id="text_56">
      <!-- 15 -->
      <g transform="translate(883.669264 518.598438)scale(0.1 -0.1)">
       <use xlink:href="#DejaVuSans-49"/>
       <use x="63.623047" xlink:href="#DejaVuSans-53"/>
      </g>
     </g>
    </g>
    <g id="xtick_41">
     <g id="line2d_75">
      <g>
       <use style="stroke:#000000;stroke-width:0.8;" x="906.072009" xlink:href="#m9b5df66511" y="504"/>
      </g>
     </g>
     <g id="text_57">
      <!-- 16 -->
      <g transform="translate(899.709509 518.598438)scale(0.1 -0.1)">
       <use xlink:href="#DejaVuSans-49"/>
       <use x="63.623047" xlink:href="#DejaVuSans-54"/>
      </g>
     </g>
    </g>
    <g id="xtick_42">
     <g id="line2d_76">
      <g>
       <use style="stroke:#000000;stroke-width:0.8;" x="922.112253" xlink:href="#m9b5df66511" y="504"/>
      </g>
     </g>
     <g id="text_58">
      <!-- 17 -->
      <g transform="translate(915.749753 518.598438)scale(0.1 -0.1)">
       <use xlink:href="#DejaVuSans-49"/>
       <use x="63.623047" xlink:href="#DejaVuSans-55"/>
      </g>
     </g>
    </g>
    <g id="xtick_43">
     <g id="line2d_77">
      <g>
       <use style="stroke:#000000;stroke-width:0.8;" x="938.152497" xlink:href="#m9b5df66511" y="504"/>
      </g>
     </g>
     <g id="text_59">
      <!-- 18 -->
      <g transform="translate(931.789997 518.598438)scale(0.1 -0.1)">
       <use xlink:href="#DejaVuSans-49"/>
       <use x="63.623047" xlink:href="#DejaVuSans-56"/>
      </g>
     </g>
    </g>
    <g id="xtick_44">
     <g id="line2d_78">
      <g>
       <use style="stroke:#000000;stroke-width:0.8;" x="954.192742" xlink:href="#m9b5df66511" y="504"/>
      </g>
     </g>
     <g id="text_60">
      <!-- 19 -->
      <g transform="translate(947.830242 518.598438)scale(0.1 -0.1)">
       <use xlink:href="#DejaVuSans-49"/>
       <use x="63.623047" xlink:href="#DejaVuSans-57"/>
      </g>
     </g>
    </g>
    <g id="xtick_45">
     <g id="line2d_79">
      <g>
       <use style="stroke:#000000;stroke-width:0.8;" x="970.232986" xlink:href="#m9b5df66511" y="504"/>
      </g>
     </g>
     <g id="text_61">
      <!-- 20 -->
      <g transform="translate(963.870486 518.598438)scale(0.1 -0.1)">
       <use xlink:href="#DejaVuSans-50"/>
       <use x="63.623047" xlink:href="#DejaVuSans-48"/>
      </g>
     </g>
    </g>
    <g id="xtick_46">
     <g id="line2d_80">
      <g>
       <use style="stroke:#000000;stroke-width:0.8;" x="986.27323" xlink:href="#m9b5df66511" y="504"/>
      </g>
     </g>
     <g id="text_62">
      <!-- 21 -->
      <g transform="translate(979.91073 518.598438)scale(0.1 -0.1)">
       <use xlink:href="#DejaVuSans-50"/>
       <use x="63.623047" xlink:href="#DejaVuSans-49"/>
      </g>
     </g>
    </g>
    <g id="xtick_47">
     <g id="line2d_81">
      <g>
       <use style="stroke:#000000;stroke-width:0.8;" x="1002.313475" xlink:href="#m9b5df66511" y="504"/>
      </g>
     </g>
     <g id="text_63">
      <!-- 22 -->
      <g transform="translate(995.950975 518.598438)scale(0.1 -0.1)">
       <use xlink:href="#DejaVuSans-50"/>
       <use x="63.623047" xlink:href="#DejaVuSans-50"/>
      </g>
     </g>
    </g>
    <g id="xtick_48">
     <g id="line2d_82">
      <g>
       <use style="stroke:#000000;stroke-width:0.8;" x="1018.353719" xlink:href="#m9b5df66511" y="504"/>
      </g>
     </g>
     <g id="text_64">
      <!-- 23 -->
      <g transform="translate(1011.991219 518.598438)scale(0.1 -0.1)">
       <use xlink:href="#DejaVuSans-50"/>
       <use x="63.623047" xlink:href="#DejaVuSans-51"/>
      </g>
     </g>
    </g>
    <g id="text_65">
     <!-- Hour -->
     <g transform="translate(819.438409 533.79625)scale(0.12 -0.12)">
      <use xlink:href="#DejaVuSans-72"/>
      <use x="75.195312" xlink:href="#DejaVuSans-111"/>
      <use x="136.376953" xlink:href="#DejaVuSans-117"/>
      <use x="199.755859" xlink:href="#DejaVuSans-114"/>
     </g>
    </g>
   </g>
   <g id="matplotlib.axis_4">
    <g id="ytick_7">
     <g id="line2d_83">
      <g>
       <use style="stroke:#000000;stroke-width:0.8;" x="630.981818" xlink:href="#mf323c3fec1" y="478.326539"/>
      </g>
     </g>
     <g id="text_66">
      <!-- 5000 -->
      <g transform="translate(598.531818 482.125758)scale(0.1 -0.1)">
       <use xlink:href="#DejaVuSans-53"/>
       <use x="63.623047" xlink:href="#DejaVuSans-48"/>
       <use x="127.246094" xlink:href="#DejaVuSans-48"/>
       <use x="190.869141" xlink:href="#DejaVuSans-48"/>
      </g>
     </g>
    </g>
    <g id="ytick_8">
     <g id="line2d_84">
      <g>
       <use style="stroke:#000000;stroke-width:0.8;" x="630.981818" xlink:href="#mf323c3fec1" y="429.755915"/>
      </g>
     </g>
     <g id="text_67">
      <!-- 7500 -->
      <g transform="translate(598.531818 433.555134)scale(0.1 -0.1)">
       <use xlink:href="#DejaVuSans-55"/>
       <use x="63.623047" xlink:href="#DejaVuSans-53"/>
       <use x="127.246094" xlink:href="#DejaVuSans-48"/>
       <use x="190.869141" xlink:href="#DejaVuSans-48"/>
      </g>
     </g>
    </g>
    <g id="ytick_9">
     <g id="line2d_85">
      <g>
       <use style="stroke:#000000;stroke-width:0.8;" x="630.981818" xlink:href="#mf323c3fec1" y="381.18529"/>
      </g>
     </g>
     <g id="text_68">
      <!-- 10000 -->
      <g transform="translate(592.169318 384.984509)scale(0.1 -0.1)">
       <use xlink:href="#DejaVuSans-49"/>
       <use x="63.623047" xlink:href="#DejaVuSans-48"/>
       <use x="127.246094" xlink:href="#DejaVuSans-48"/>
       <use x="190.869141" xlink:href="#DejaVuSans-48"/>
       <use x="254.492188" xlink:href="#DejaVuSans-48"/>
      </g>
     </g>
    </g>
    <g id="ytick_10">
     <g id="line2d_86">
      <g>
       <use style="stroke:#000000;stroke-width:0.8;" x="630.981818" xlink:href="#mf323c3fec1" y="332.614666"/>
      </g>
     </g>
     <g id="text_69">
      <!-- 12500 -->
      <g transform="translate(592.169318 336.413885)scale(0.1 -0.1)">
       <use xlink:href="#DejaVuSans-49"/>
       <use x="63.623047" xlink:href="#DejaVuSans-50"/>
       <use x="127.246094" xlink:href="#DejaVuSans-53"/>
       <use x="190.869141" xlink:href="#DejaVuSans-48"/>
       <use x="254.492188" xlink:href="#DejaVuSans-48"/>
      </g>
     </g>
    </g>
    <g id="ytick_11">
     <g id="line2d_87">
      <g>
       <use style="stroke:#000000;stroke-width:0.8;" x="630.981818" xlink:href="#mf323c3fec1" y="284.044042"/>
      </g>
     </g>
     <g id="text_70">
      <!-- 15000 -->
      <g transform="translate(592.169318 287.84326)scale(0.1 -0.1)">
       <use xlink:href="#DejaVuSans-49"/>
       <use x="63.623047" xlink:href="#DejaVuSans-53"/>
       <use x="127.246094" xlink:href="#DejaVuSans-48"/>
       <use x="190.869141" xlink:href="#DejaVuSans-48"/>
       <use x="254.492188" xlink:href="#DejaVuSans-48"/>
      </g>
     </g>
    </g>
    <g id="ytick_12">
     <g id="line2d_88">
      <g>
       <use style="stroke:#000000;stroke-width:0.8;" x="630.981818" xlink:href="#mf323c3fec1" y="235.473417"/>
      </g>
     </g>
     <g id="text_71">
      <!-- 17500 -->
      <g transform="translate(592.169318 239.272636)scale(0.1 -0.1)">
       <use xlink:href="#DejaVuSans-49"/>
       <use x="63.623047" xlink:href="#DejaVuSans-55"/>
       <use x="127.246094" xlink:href="#DejaVuSans-53"/>
       <use x="190.869141" xlink:href="#DejaVuSans-48"/>
       <use x="254.492188" xlink:href="#DejaVuSans-48"/>
      </g>
     </g>
    </g>
    <g id="ytick_13">
     <g id="line2d_89">
      <g>
       <use style="stroke:#000000;stroke-width:0.8;" x="630.981818" xlink:href="#mf323c3fec1" y="186.902793"/>
      </g>
     </g>
     <g id="text_72">
      <!-- 20000 -->
      <g transform="translate(592.169318 190.702012)scale(0.1 -0.1)">
       <use xlink:href="#DejaVuSans-50"/>
       <use x="63.623047" xlink:href="#DejaVuSans-48"/>
       <use x="127.246094" xlink:href="#DejaVuSans-48"/>
       <use x="190.869141" xlink:href="#DejaVuSans-48"/>
       <use x="254.492188" xlink:href="#DejaVuSans-48"/>
      </g>
     </g>
    </g>
    <g id="ytick_14">
     <g id="line2d_90">
      <g>
       <use style="stroke:#000000;stroke-width:0.8;" x="630.981818" xlink:href="#mf323c3fec1" y="138.332168"/>
      </g>
     </g>
     <g id="text_73">
      <!-- 22500 -->
      <g transform="translate(592.169318 142.131387)scale(0.1 -0.1)">
       <use xlink:href="#DejaVuSans-50"/>
       <use x="63.623047" xlink:href="#DejaVuSans-50"/>
       <use x="127.246094" xlink:href="#DejaVuSans-53"/>
       <use x="190.869141" xlink:href="#DejaVuSans-48"/>
       <use x="254.492188" xlink:href="#DejaVuSans-48"/>
      </g>
     </g>
    </g>
    <g id="ytick_15">
     <g id="line2d_91">
      <g>
       <use style="stroke:#000000;stroke-width:0.8;" x="630.981818" xlink:href="#mf323c3fec1" y="89.761544"/>
      </g>
     </g>
     <g id="text_74">
      <!-- 25000 -->
      <g transform="translate(592.169318 93.560763)scale(0.1 -0.1)">
       <use xlink:href="#DejaVuSans-50"/>
       <use x="63.623047" xlink:href="#DejaVuSans-53"/>
       <use x="127.246094" xlink:href="#DejaVuSans-48"/>
       <use x="190.869141" xlink:href="#DejaVuSans-48"/>
       <use x="254.492188" xlink:href="#DejaVuSans-48"/>
      </g>
     </g>
    </g>
    <g id="text_75">
     <!-- Number of original tweets and replies -->
     <g transform="translate(585.673693 399.800625)rotate(-90)scale(0.12 -0.12)">
      <defs>
       <path d="M 45.40625 27.984375 
Q 45.40625 37.75 41.375 43.109375 
Q 37.359375 48.484375 30.078125 48.484375 
Q 22.859375 48.484375 18.828125 43.109375 
Q 14.796875 37.75 14.796875 27.984375 
Q 14.796875 18.265625 18.828125 12.890625 
Q 22.859375 7.515625 30.078125 7.515625 
Q 37.359375 7.515625 41.375 12.890625 
Q 45.40625 18.265625 45.40625 27.984375 
z
M 54.390625 6.78125 
Q 54.390625 -7.171875 48.1875 -13.984375 
Q 42 -20.796875 29.203125 -20.796875 
Q 24.46875 -20.796875 20.265625 -20.09375 
Q 16.0625 -19.390625 12.109375 -17.921875 
L 12.109375 -9.1875 
Q 16.0625 -11.328125 19.921875 -12.34375 
Q 23.78125 -13.375 27.78125 -13.375 
Q 36.625 -13.375 41.015625 -8.765625 
Q 45.40625 -4.15625 45.40625 5.171875 
L 45.40625 9.625 
Q 42.625 4.78125 38.28125 2.390625 
Q 33.9375 0 27.875 0 
Q 17.828125 0 11.671875 7.65625 
Q 5.515625 15.328125 5.515625 27.984375 
Q 5.515625 40.671875 11.671875 48.328125 
Q 17.828125 56 27.875 56 
Q 33.9375 56 38.28125 53.609375 
Q 42.625 51.21875 45.40625 46.390625 
L 45.40625 54.6875 
L 54.390625 54.6875 
z
" id="DejaVuSans-103"/>
       <path d="M 18.109375 8.203125 
L 18.109375 -20.796875 
L 9.078125 -20.796875 
L 9.078125 54.6875 
L 18.109375 54.6875 
L 18.109375 46.390625 
Q 20.953125 51.265625 25.265625 53.625 
Q 29.59375 56 35.59375 56 
Q 45.5625 56 51.78125 48.09375 
Q 58.015625 40.1875 58.015625 27.296875 
Q 58.015625 14.40625 51.78125 6.484375 
Q 45.5625 -1.421875 35.59375 -1.421875 
Q 29.59375 -1.421875 25.265625 0.953125 
Q 20.953125 3.328125 18.109375 8.203125 
z
M 48.6875 27.296875 
Q 48.6875 37.203125 44.609375 42.84375 
Q 40.53125 48.484375 33.40625 48.484375 
Q 26.265625 48.484375 22.1875 42.84375 
Q 18.109375 37.203125 18.109375 27.296875 
Q 18.109375 17.390625 22.1875 11.75 
Q 26.265625 6.109375 33.40625 6.109375 
Q 40.53125 6.109375 44.609375 11.75 
Q 48.6875 17.390625 48.6875 27.296875 
z
" id="DejaVuSans-112"/>
      </defs>
      <use xlink:href="#DejaVuSans-78"/>
      <use x="74.804688" xlink:href="#DejaVuSans-117"/>
      <use x="138.183594" xlink:href="#DejaVuSans-109"/>
      <use x="235.595703" xlink:href="#DejaVuSans-98"/>
      <use x="299.072266" xlink:href="#DejaVuSans-101"/>
      <use x="360.595703" xlink:href="#DejaVuSans-114"/>
      <use x="401.708984" xlink:href="#DejaVuSans-32"/>
      <use x="433.496094" xlink:href="#DejaVuSans-111"/>
      <use x="494.677734" xlink:href="#DejaVuSans-102"/>
      <use x="529.882812" xlink:href="#DejaVuSans-32"/>
      <use x="561.669922" xlink:href="#DejaVuSans-111"/>
      <use x="622.851562" xlink:href="#DejaVuSans-114"/>
      <use x="663.964844" xlink:href="#DejaVuSans-105"/>
      <use x="691.748047" xlink:href="#DejaVuSans-103"/>
      <use x="755.224609" xlink:href="#DejaVuSans-105"/>
      <use x="783.007812" xlink:href="#DejaVuSans-110"/>
      <use x="846.386719" xlink:href="#DejaVuSans-97"/>
      <use x="907.666016" xlink:href="#DejaVuSans-108"/>
      <use x="935.449219" xlink:href="#DejaVuSans-32"/>
      <use x="967.236328" xlink:href="#DejaVuSans-116"/>
      <use x="1006.445312" xlink:href="#DejaVuSans-119"/>
      <use x="1088.232422" xlink:href="#DejaVuSans-101"/>
      <use x="1149.755859" xlink:href="#DejaVuSans-101"/>
      <use x="1211.279297" xlink:href="#DejaVuSans-116"/>
      <use x="1250.488281" xlink:href="#DejaVuSans-115"/>
      <use x="1302.587891" xlink:href="#DejaVuSans-32"/>
      <use x="1334.375" xlink:href="#DejaVuSans-97"/>
      <use x="1395.654297" xlink:href="#DejaVuSans-110"/>
      <use x="1459.033203" xlink:href="#DejaVuSans-100"/>
      <use x="1522.509766" xlink:href="#DejaVuSans-32"/>
      <use x="1554.296875" xlink:href="#DejaVuSans-114"/>
      <use x="1593.160156" xlink:href="#DejaVuSans-101"/>
      <use x="1654.683594" xlink:href="#DejaVuSans-112"/>
      <use x="1718.160156" xlink:href="#DejaVuSans-108"/>
      <use x="1745.943359" xlink:href="#DejaVuSans-105"/>
      <use x="1773.726562" xlink:href="#DejaVuSans-101"/>
      <use x="1835.25" xlink:href="#DejaVuSans-115"/>
     </g>
    </g>
   </g>
   <g id="line2d_92">
    <path clip-path="url(#p92794f2b3f)" d="M 649.428099 254.163394 
L 665.468344 355.32629 
L 681.508588 431.135321 
L 697.548832 466.55302 
L 713.589077 475.159735 
L 729.629321 464.66848 
L 745.669565 446.46421 
L 761.70981 392.667386 
L 777.750054 356.239418 
L 793.790298 343.319632 
L 809.830543 317.285777 
L 825.870787 312.234432 
L 841.911031 289.309097 
L 857.951276 285.132024 
L 873.99152 275.709323 
L 890.031764 270.113987 
L 906.072009 253.114268 
L 922.112253 243.225289 
L 938.152497 201.415695 
L 954.192742 165.726001 
L 970.232986 130.910577 
L 986.27323 88.887273 
L 1002.313475 115.231979 
L 1018.353719 169.378512 
" style="fill:none;stroke:#0173b2;stroke-linecap:square;stroke-width:1.5;"/>
   </g>
   <g id="line2d_93">
    <path clip-path="url(#p92794f2b3f)" d="M 649.428099 261.507272 
L 665.468344 371.9763 
L 681.508588 437.158078 
L 697.548832 470.982661 
L 713.589077 484.232727 
L 729.629321 467.893569 
L 745.669565 443.258549 
L 761.70981 389.384012 
L 777.750054 359.814216 
L 793.790298 336.053466 
L 809.830543 307.513367 
L 825.870787 294.749007 
L 841.911031 272.037383 
L 857.951276 275.592753 
L 873.99152 282.39264 
L 890.031764 269.045433 
L 906.072009 249.558898 
L 922.112253 239.805917 
L 938.152497 215.093183 
L 954.192742 183.289138 
L 970.232986 143.208659 
L 986.27323 110.724625 
L 1002.313475 117.951934 
L 1018.353719 167.999106 
" style="fill:none;stroke:#de8f05;stroke-linecap:square;stroke-width:1.5;"/>
   </g>
   <g id="line2d_94">
    <path clip-path="url(#p92794f2b3f)" d="M 649.428099 264.363225 
L 665.468344 366.322679 
L 681.508588 437.002652 
L 697.548832 464.474197 
L 713.589077 474.266035 
L 729.629321 462.686798 
L 745.669565 438.110062 
L 761.70981 394.357644 
L 777.750054 358.395954 
L 793.790298 335.917469 
L 809.830543 317.169208 
L 825.870787 294.302158 
L 841.911031 263.275243 
L 857.951276 277.496721 
L 873.99152 271.085399 
L 890.031764 260.555288 
L 906.072009 254.20225 
L 922.112253 231.762622 
L 938.152497 221.873642 
L 954.192742 187.738208 
L 970.232986 142.64524 
L 986.27323 106.469839 
L 1002.313475 106.547552 
L 1018.353719 166.114566 
" style="fill:none;stroke:#029e73;stroke-linecap:square;stroke-width:1.5;"/>
   </g>
   <g id="line2d_95">
    <path clip-path="url(#p92794f2b3f)" d="M 649.428099 272.503661 
L 665.468344 368.459787 
L 681.508588 430.902182 
L 697.548832 466.922157 
L 713.589077 479.297952 
L 729.629321 470.807807 
L 745.669565 440.091744 
L 761.70981 393.949651 
L 777.750054 355.306862 
L 793.790298 333.56665 
L 809.830543 306.405957 
L 825.870787 298.964937 
L 841.911031 272.115096 
L 857.951276 285.773156 
L 873.99152 281.790365 
L 890.031764 263.780377 
L 906.072009 243.788708 
L 922.112253 237.765951 
L 938.152497 194.03296 
L 954.192742 179.50063 
L 970.232986 143.966361 
L 986.27323 114.940556 
L 1002.313475 107.946386 
L 1018.353719 171.340765 
" style="fill:none;stroke:#d55e00;stroke-linecap:square;stroke-width:1.5;"/>
   </g>
   <g id="line2d_96">
    <path clip-path="url(#p92794f2b3f)" d="M 649.428099 262.63411 
L 665.468344 367.332948 
L 681.508588 430.902182 
L 697.548832 461.579388 
L 713.589077 475.703726 
L 729.629321 464.940475 
L 745.669565 437.760354 
L 761.70981 388.781736 
L 777.750054 350.508084 
L 793.790298 327.543893 
L 809.830543 304.249421 
L 825.870787 285.345734 
L 841.911031 275.18476 
L 857.951276 285.442876 
L 873.99152 279.342405 
L 890.031764 266.403191 
L 906.072009 259.370164 
L 922.112253 251.793147 
L 938.152497 236.580827 
L 954.192742 223.602757 
L 970.232986 189.81703 
L 986.27323 161.840351 
L 1002.313475 172.642457 
L 1018.353719 202.309395 
" style="fill:none;stroke:#cc78bc;stroke-linecap:square;stroke-width:1.5;"/>
   </g>
   <g id="line2d_97">
    <path clip-path="url(#p92794f2b3f)" d="M 649.428099 265.004357 
L 665.468344 354.452019 
L 681.508588 412.989335 
L 697.548832 451.262987 
L 713.589077 472.187212 
L 729.629321 470.050105 
L 745.669565 461.365677 
L 761.70981 429.658774 
L 777.750054 390.277711 
L 793.790298 357.249687 
L 809.830543 313.516697 
L 825.870787 300.402628 
L 841.911031 276.894446 
L 857.951276 278.040712 
L 873.99152 279.303549 
L 890.031764 271.648818 
L 906.072009 277.671576 
L 922.112253 265.392922 
L 938.152497 247.169224 
L 954.192742 224.127319 
L 970.232986 195.451223 
L 986.27323 181.404598 
L 1002.313475 182.123443 
L 1018.353719 193.838678 
" style="fill:none;stroke:#ca9161;stroke-linecap:square;stroke-width:1.5;"/>
   </g>
   <g id="line2d_98">
    <path clip-path="url(#p92794f2b3f)" d="M 649.428099 257.097059 
L 665.468344 337.258018 
L 681.508588 391.929113 
L 697.548832 435.448392 
L 713.589077 468.631843 
L 729.629321 473.411192 
L 745.669565 465.018188 
L 761.70981 432.126161 
L 777.750054 410.8328 
L 793.790298 379.203609 
L 809.830543 332.051247 
L 825.870787 299.703211 
L 841.911031 269.74485 
L 857.951276 257.679907 
L 873.99152 259.117597 
L 890.031764 253.561118 
L 906.072009 241.593316 
L 922.112253 228.906669 
L 938.152497 205.553913 
L 954.192742 195.082086 
L 970.232986 140.119567 
L 986.27323 109.597787 
L 1002.313475 108.101812 
L 1018.353719 154.787896 
" style="fill:none;stroke:#fbafe4;stroke-linecap:square;stroke-width:1.5;"/>
   </g>
   <g id="line2d_99"/>
   <g id="line2d_100"/>
   <g id="line2d_101"/>
   <g id="line2d_102"/>
   <g id="line2d_103"/>
   <g id="line2d_104"/>
   <g id="line2d_105"/>
   <g id="patch_9">
    <path d="M 630.981818 504 
L 630.981818 69.12 
" style="fill:none;stroke:#000000;stroke-linecap:square;stroke-linejoin:miter;stroke-width:0.8;"/>
   </g>
   <g id="patch_10">
    <path d="M 1036.8 504 
L 1036.8 69.12 
" style="fill:none;stroke:#000000;stroke-linecap:square;stroke-linejoin:miter;stroke-width:0.8;"/>
   </g>
   <g id="patch_11">
    <path d="M 630.981818 504 
L 1036.8 504 
" style="fill:none;stroke:#000000;stroke-linecap:square;stroke-linejoin:miter;stroke-width:0.8;"/>
   </g>
   <g id="patch_12">
    <path d="M 630.981818 69.12 
L 1036.8 69.12 
" style="fill:none;stroke:#000000;stroke-linecap:square;stroke-linejoin:miter;stroke-width:0.8;"/>
   </g>
   <g id="legend_2">
    <g id="patch_13">
     <path d="M 637.981818 194.545 
L 691.783381 194.545 
Q 693.783381 194.545 693.783381 192.545 
L 693.783381 76.12 
Q 693.783381 74.12 691.783381 74.12 
L 637.981818 74.12 
Q 635.981818 74.12 635.981818 76.12 
L 635.981818 192.545 
Q 635.981818 194.545 637.981818 194.545 
z
" style="fill:#ffffff;opacity:0.8;stroke:#cccccc;stroke-linejoin:miter;"/>
    </g>
    <g id="text_76">
     <!-- weekday -->
     <g transform="translate(642.547443 85.718437)scale(0.1 -0.1)">
      <use xlink:href="#DejaVuSans-119"/>
      <use x="81.787109" xlink:href="#DejaVuSans-101"/>
      <use x="143.310547" xlink:href="#DejaVuSans-101"/>
      <use x="204.833984" xlink:href="#DejaVuSans-107"/>
      <use x="262.744141" xlink:href="#DejaVuSans-100"/>
      <use x="326.220703" xlink:href="#DejaVuSans-97"/>
      <use x="387.5" xlink:href="#DejaVuSans-121"/>
     </g>
    </g>
    <g id="line2d_106">
     <path d="M 639.981818 96.896563 
L 659.981818 96.896563 
" style="fill:none;stroke:#0173b2;stroke-linecap:square;stroke-width:1.5;"/>
    </g>
    <g id="line2d_107"/>
    <g id="text_77">
     <!-- Mon -->
     <g transform="translate(667.981818 100.396563)scale(0.1 -0.1)">
      <use xlink:href="#DejaVuSans-77"/>
      <use x="86.279297" xlink:href="#DejaVuSans-111"/>
      <use x="147.460938" xlink:href="#DejaVuSans-110"/>
     </g>
    </g>
    <g id="line2d_108">
     <path d="M 639.981818 111.574688 
L 659.981818 111.574688 
" style="fill:none;stroke:#de8f05;stroke-linecap:square;stroke-width:1.5;"/>
    </g>
    <g id="line2d_109"/>
    <g id="text_78">
     <!-- Tue -->
     <g transform="translate(667.981818 115.074688)scale(0.1 -0.1)">
      <use xlink:href="#DejaVuSans-84"/>
      <use x="45.958984" xlink:href="#DejaVuSans-117"/>
      <use x="109.337891" xlink:href="#DejaVuSans-101"/>
     </g>
    </g>
    <g id="line2d_110">
     <path d="M 639.981818 126.252813 
L 659.981818 126.252813 
" style="fill:none;stroke:#029e73;stroke-linecap:square;stroke-width:1.5;"/>
    </g>
    <g id="line2d_111"/>
    <g id="text_79">
     <!-- Wed -->
     <g transform="translate(667.981818 129.752813)scale(0.1 -0.1)">
      <use xlink:href="#DejaVuSans-87"/>
      <use x="93.001953" xlink:href="#DejaVuSans-101"/>
      <use x="154.525391" xlink:href="#DejaVuSans-100"/>
     </g>
    </g>
    <g id="line2d_112">
     <path d="M 639.981818 140.930938 
L 659.981818 140.930938 
" style="fill:none;stroke:#d55e00;stroke-linecap:square;stroke-width:1.5;"/>
    </g>
    <g id="line2d_113"/>
    <g id="text_80">
     <!-- Thu -->
     <g transform="translate(667.981818 144.430938)scale(0.1 -0.1)">
      <use xlink:href="#DejaVuSans-84"/>
      <use x="61.083984" xlink:href="#DejaVuSans-104"/>
      <use x="124.462891" xlink:href="#DejaVuSans-117"/>
     </g>
    </g>
    <g id="line2d_114">
     <path d="M 639.981818 155.609063 
L 659.981818 155.609063 
" style="fill:none;stroke:#cc78bc;stroke-linecap:square;stroke-width:1.5;"/>
    </g>
    <g id="line2d_115"/>
    <g id="text_81">
     <!-- Fri -->
     <g transform="translate(667.981818 159.109063)scale(0.1 -0.1)">
      <use xlink:href="#DejaVuSans-70"/>
      <use x="50.269531" xlink:href="#DejaVuSans-114"/>
      <use x="91.382812" xlink:href="#DejaVuSans-105"/>
     </g>
    </g>
    <g id="line2d_116">
     <path d="M 639.981818 170.287188 
L 659.981818 170.287188 
" style="fill:none;stroke:#ca9161;stroke-linecap:square;stroke-width:1.5;"/>
    </g>
    <g id="line2d_117"/>
    <g id="text_82">
     <!-- Sat -->
     <g transform="translate(667.981818 173.787188)scale(0.1 -0.1)">
      <use xlink:href="#DejaVuSans-83"/>
      <use x="63.476562" xlink:href="#DejaVuSans-97"/>
      <use x="124.755859" xlink:href="#DejaVuSans-116"/>
     </g>
    </g>
    <g id="line2d_118">
     <path d="M 639.981818 184.965312 
L 659.981818 184.965312 
" style="fill:none;stroke:#fbafe4;stroke-linecap:square;stroke-width:1.5;"/>
    </g>
    <g id="line2d_119"/>
    <g id="text_83">
     <!-- Sun -->
     <g transform="translate(667.981818 188.465312)scale(0.1 -0.1)">
      <use xlink:href="#DejaVuSans-83"/>
      <use x="63.476562" xlink:href="#DejaVuSans-117"/>
      <use x="126.855469" xlink:href="#DejaVuSans-110"/>
     </g>
    </g>
   </g>
  </g>
  <g id="text_84">
   <!-- Comparision between the most Tweeted Tweets and All Tweets -->
   <g transform="translate(387.936563 20.638125)scale(0.12 -0.12)">
    <defs>
     <path d="M 64.40625 67.28125 
L 64.40625 56.890625 
Q 59.421875 61.53125 53.78125 63.8125 
Q 48.140625 66.109375 41.796875 66.109375 
Q 29.296875 66.109375 22.65625 58.46875 
Q 16.015625 50.828125 16.015625 36.375 
Q 16.015625 21.96875 22.65625 14.328125 
Q 29.296875 6.6875 41.796875 6.6875 
Q 48.140625 6.6875 53.78125 8.984375 
Q 59.421875 11.28125 64.40625 15.921875 
L 64.40625 5.609375 
Q 59.234375 2.09375 53.4375 0.328125 
Q 47.65625 -1.421875 41.21875 -1.421875 
Q 24.65625 -1.421875 15.125 8.703125 
Q 5.609375 18.84375 5.609375 36.375 
Q 5.609375 53.953125 15.125 64.078125 
Q 24.65625 74.21875 41.21875 74.21875 
Q 47.75 74.21875 53.53125 72.484375 
Q 59.328125 70.75 64.40625 67.28125 
z
" id="DejaVuSans-67"/>
     <path d="M 34.1875 63.1875 
L 20.796875 26.90625 
L 47.609375 26.90625 
z
M 28.609375 72.90625 
L 39.796875 72.90625 
L 67.578125 0 
L 57.328125 0 
L 50.6875 18.703125 
L 17.828125 18.703125 
L 11.1875 0 
L 0.78125 0 
z
" id="DejaVuSans-65"/>
    </defs>
    <use xlink:href="#DejaVuSans-67"/>
    <use x="69.824219" xlink:href="#DejaVuSans-111"/>
    <use x="131.005859" xlink:href="#DejaVuSans-109"/>
    <use x="228.417969" xlink:href="#DejaVuSans-112"/>
    <use x="291.894531" xlink:href="#DejaVuSans-97"/>
    <use x="353.173828" xlink:href="#DejaVuSans-114"/>
    <use x="394.287109" xlink:href="#DejaVuSans-105"/>
    <use x="422.070312" xlink:href="#DejaVuSans-115"/>
    <use x="474.169922" xlink:href="#DejaVuSans-105"/>
    <use x="501.953125" xlink:href="#DejaVuSans-111"/>
    <use x="563.134766" xlink:href="#DejaVuSans-110"/>
    <use x="626.513672" xlink:href="#DejaVuSans-32"/>
    <use x="658.300781" xlink:href="#DejaVuSans-98"/>
    <use x="721.777344" xlink:href="#DejaVuSans-101"/>
    <use x="783.300781" xlink:href="#DejaVuSans-116"/>
    <use x="822.509766" xlink:href="#DejaVuSans-119"/>
    <use x="904.296875" xlink:href="#DejaVuSans-101"/>
    <use x="965.820312" xlink:href="#DejaVuSans-101"/>
    <use x="1027.34375" xlink:href="#DejaVuSans-110"/>
    <use x="1090.722656" xlink:href="#DejaVuSans-32"/>
    <use x="1122.509766" xlink:href="#DejaVuSans-116"/>
    <use x="1161.71875" xlink:href="#DejaVuSans-104"/>
    <use x="1225.097656" xlink:href="#DejaVuSans-101"/>
    <use x="1286.621094" xlink:href="#DejaVuSans-32"/>
    <use x="1318.408203" xlink:href="#DejaVuSans-109"/>
    <use x="1415.820312" xlink:href="#DejaVuSans-111"/>
    <use x="1477.001953" xlink:href="#DejaVuSans-115"/>
    <use x="1529.101562" xlink:href="#DejaVuSans-116"/>
    <use x="1568.310547" xlink:href="#DejaVuSans-32"/>
    <use x="1600.097656" xlink:href="#DejaVuSans-84"/>
    <use x="1644.681641" xlink:href="#DejaVuSans-119"/>
    <use x="1726.46875" xlink:href="#DejaVuSans-101"/>
    <use x="1787.992188" xlink:href="#DejaVuSans-101"/>
    <use x="1849.515625" xlink:href="#DejaVuSans-116"/>
    <use x="1888.724609" xlink:href="#DejaVuSans-101"/>
    <use x="1950.248047" xlink:href="#DejaVuSans-100"/>
    <use x="2013.724609" xlink:href="#DejaVuSans-32"/>
    <use x="2045.511719" xlink:href="#DejaVuSans-84"/>
    <use x="2090.095703" xlink:href="#DejaVuSans-119"/>
    <use x="2171.882812" xlink:href="#DejaVuSans-101"/>
    <use x="2233.40625" xlink:href="#DejaVuSans-101"/>
    <use x="2294.929688" xlink:href="#DejaVuSans-116"/>
    <use x="2334.138672" xlink:href="#DejaVuSans-115"/>
    <use x="2386.238281" xlink:href="#DejaVuSans-32"/>
    <use x="2418.025391" xlink:href="#DejaVuSans-97"/>
    <use x="2479.304688" xlink:href="#DejaVuSans-110"/>
    <use x="2542.683594" xlink:href="#DejaVuSans-100"/>
    <use x="2606.160156" xlink:href="#DejaVuSans-32"/>
    <use x="2637.947266" xlink:href="#DejaVuSans-65"/>
    <use x="2706.355469" xlink:href="#DejaVuSans-108"/>
    <use x="2734.138672" xlink:href="#DejaVuSans-108"/>
    <use x="2761.921875" xlink:href="#DejaVuSans-32"/>
    <use x="2793.708984" xlink:href="#DejaVuSans-84"/>
    <use x="2838.292969" xlink:href="#DejaVuSans-119"/>
    <use x="2920.080078" xlink:href="#DejaVuSans-101"/>
    <use x="2981.603516" xlink:href="#DejaVuSans-101"/>
    <use x="3043.126953" xlink:href="#DejaVuSans-116"/>
    <use x="3082.335938" xlink:href="#DejaVuSans-115"/>
   </g>
  </g>
 </g>
 <defs>
  <clipPath id="pfdfdc32b7d">
   <rect height="434.88" width="405.818182" x="144" y="69.12"/>
  </clipPath>
  <clipPath id="p92794f2b3f">
   <rect height="434.88" width="405.818182" x="630.981818" y="69.12"/>
  </clipPath>
 </defs>
</svg>
