<?xml version="1.0" encoding="utf-8" standalone="no"?>
<!DOCTYPE svg PUBLIC "-//W3C//DTD SVG 1.1//EN"
  "http://www.w3.org/Graphics/SVG/1.1/DTD/svg11.dtd">
<!-- Created with matplotlib (https://matplotlib.org/) -->
<svg height="576pt" version="1.1" viewBox="0 0 576 576" width="576pt" xmlns="http://www.w3.org/2000/svg" xmlns:xlink="http://www.w3.org/1999/xlink">
 <metadata>
  <rdf:RDF xmlns:cc="http://creativecommons.org/ns#" xmlns:dc="http://purl.org/dc/elements/1.1/" xmlns:rdf="http://www.w3.org/1999/02/22-rdf-syntax-ns#">
   <cc:Work>
    <dc:type rdf:resource="http://purl.org/dc/dcmitype/StillImage"/>
    <dc:date>2020-12-18T20:05:33.825726</dc:date>
    <dc:format>image/svg+xml</dc:format>
    <dc:creator>
     <cc:Agent>
      <dc:title>Matplotlib v3.3.2, https://matplotlib.org/</dc:title>
     </cc:Agent>
    </dc:creator>
   </cc:Work>
  </rdf:RDF>
 </metadata>
 <defs>
  <style type="text/css">*{stroke-linecap:butt;stroke-linejoin:round;}</style>
 </defs>
 <g id="figure_1">
  <g id="patch_1">
   <path d="M 0 576 
L 576 576 
L 576 0 
L 0 0 
z
" style="fill:none;"/>
  </g>
  <g id="axes_1">
   <g id="patch_2">
    <path d="M 60.3 531.2 
L 558.908734 531.2 
L 558.908734 34.6 
L 60.3 34.6 
z
" style="fill:#ffffff;"/>
   </g>
   <g id="matplotlib.axis_1">
    <g id="xtick_1">
     <g id="line2d_1">
      <defs>
       <path d="M 0 0 
L 0 3.5 
" id="m0e5cfbca6d" style="stroke:#000000;stroke-width:0.8;"/>
      </defs>
      <g>
       <use style="stroke:#000000;stroke-width:0.8;" x="96.669606" xlink:href="#m0e5cfbca6d" y="531.2"/>
      </g>
     </g>
     <g id="text_1">
      <!-- 2010 -->
      <g transform="translate(83.944606 545.798437)scale(0.1 -0.1)">
       <defs>
        <path d="M 19.1875 8.296875 
L 53.609375 8.296875 
L 53.609375 0 
L 7.328125 0 
L 7.328125 8.296875 
Q 12.9375 14.109375 22.625 23.890625 
Q 32.328125 33.6875 34.8125 36.53125 
Q 39.546875 41.84375 41.421875 45.53125 
Q 43.3125 49.21875 43.3125 52.78125 
Q 43.3125 58.59375 39.234375 62.25 
Q 35.15625 65.921875 28.609375 65.921875 
Q 23.96875 65.921875 18.8125 64.3125 
Q 13.671875 62.703125 7.8125 59.421875 
L 7.8125 69.390625 
Q 13.765625 71.78125 18.9375 73 
Q 24.125 74.21875 28.421875 74.21875 
Q 39.75 74.21875 46.484375 68.546875 
Q 53.21875 62.890625 53.21875 53.421875 
Q 53.21875 48.921875 51.53125 44.890625 
Q 49.859375 40.875 45.40625 35.40625 
Q 44.1875 33.984375 37.640625 27.21875 
Q 31.109375 20.453125 19.1875 8.296875 
z
" id="DejaVuSans-50"/>
        <path d="M 31.78125 66.40625 
Q 24.171875 66.40625 20.328125 58.90625 
Q 16.5 51.421875 16.5 36.375 
Q 16.5 21.390625 20.328125 13.890625 
Q 24.171875 6.390625 31.78125 6.390625 
Q 39.453125 6.390625 43.28125 13.890625 
Q 47.125 21.390625 47.125 36.375 
Q 47.125 51.421875 43.28125 58.90625 
Q 39.453125 66.40625 31.78125 66.40625 
z
M 31.78125 74.21875 
Q 44.046875 74.21875 50.515625 64.515625 
Q 56.984375 54.828125 56.984375 36.375 
Q 56.984375 17.96875 50.515625 8.265625 
Q 44.046875 -1.421875 31.78125 -1.421875 
Q 19.53125 -1.421875 13.0625 8.265625 
Q 6.59375 17.96875 6.59375 36.375 
Q 6.59375 54.828125 13.0625 64.515625 
Q 19.53125 74.21875 31.78125 74.21875 
z
" id="DejaVuSans-48"/>
        <path d="M 12.40625 8.296875 
L 28.515625 8.296875 
L 28.515625 63.921875 
L 10.984375 60.40625 
L 10.984375 69.390625 
L 28.421875 72.90625 
L 38.28125 72.90625 
L 38.28125 8.296875 
L 54.390625 8.296875 
L 54.390625 0 
L 12.40625 0 
z
" id="DejaVuSans-49"/>
       </defs>
       <use xlink:href="#DejaVuSans-50"/>
       <use x="63.623047" xlink:href="#DejaVuSans-48"/>
       <use x="127.246094" xlink:href="#DejaVuSans-49"/>
       <use x="190.869141" xlink:href="#DejaVuSans-48"/>
      </g>
     </g>
    </g>
    <g id="xtick_2">
     <g id="line2d_2">
      <g>
       <use style="stroke:#000000;stroke-width:0.8;" x="187.62477" xlink:href="#m0e5cfbca6d" y="531.2"/>
      </g>
     </g>
     <g id="text_2">
      <!-- 2011 -->
      <g transform="translate(174.89977 545.798437)scale(0.1 -0.1)">
       <use xlink:href="#DejaVuSans-50"/>
       <use x="63.623047" xlink:href="#DejaVuSans-48"/>
       <use x="127.246094" xlink:href="#DejaVuSans-49"/>
       <use x="190.869141" xlink:href="#DejaVuSans-49"/>
      </g>
     </g>
    </g>
    <g id="xtick_3">
     <g id="line2d_3">
      <g>
       <use style="stroke:#000000;stroke-width:0.8;" x="278.579934" xlink:href="#m0e5cfbca6d" y="531.2"/>
      </g>
     </g>
     <g id="text_3">
      <!-- 2012 -->
      <g transform="translate(265.854934 545.798437)scale(0.1 -0.1)">
       <use xlink:href="#DejaVuSans-50"/>
       <use x="63.623047" xlink:href="#DejaVuSans-48"/>
       <use x="127.246094" xlink:href="#DejaVuSans-49"/>
       <use x="190.869141" xlink:href="#DejaVuSans-50"/>
      </g>
     </g>
    </g>
    <g id="xtick_4">
     <g id="line2d_4">
      <g>
       <use style="stroke:#000000;stroke-width:0.8;" x="369.78429" xlink:href="#m0e5cfbca6d" y="531.2"/>
      </g>
     </g>
     <g id="text_4">
      <!-- 2013 -->
      <g transform="translate(357.05929 545.798437)scale(0.1 -0.1)">
       <defs>
        <path d="M 40.578125 39.3125 
Q 47.65625 37.796875 51.625 33 
Q 55.609375 28.21875 55.609375 21.1875 
Q 55.609375 10.40625 48.1875 4.484375 
Q 40.765625 -1.421875 27.09375 -1.421875 
Q 22.515625 -1.421875 17.65625 -0.515625 
Q 12.796875 0.390625 7.625 2.203125 
L 7.625 11.71875 
Q 11.71875 9.328125 16.59375 8.109375 
Q 21.484375 6.890625 26.8125 6.890625 
Q 36.078125 6.890625 40.9375 10.546875 
Q 45.796875 14.203125 45.796875 21.1875 
Q 45.796875 27.640625 41.28125 31.265625 
Q 36.765625 34.90625 28.71875 34.90625 
L 20.21875 34.90625 
L 20.21875 43.015625 
L 29.109375 43.015625 
Q 36.375 43.015625 40.234375 45.921875 
Q 44.09375 48.828125 44.09375 54.296875 
Q 44.09375 59.90625 40.109375 62.90625 
Q 36.140625 65.921875 28.71875 65.921875 
Q 24.65625 65.921875 20.015625 65.03125 
Q 15.375 64.15625 9.8125 62.3125 
L 9.8125 71.09375 
Q 15.4375 72.65625 20.34375 73.4375 
Q 25.25 74.21875 29.59375 74.21875 
Q 40.828125 74.21875 47.359375 69.109375 
Q 53.90625 64.015625 53.90625 55.328125 
Q 53.90625 49.265625 50.4375 45.09375 
Q 46.96875 40.921875 40.578125 39.3125 
z
" id="DejaVuSans-51"/>
       </defs>
       <use xlink:href="#DejaVuSans-50"/>
       <use x="63.623047" xlink:href="#DejaVuSans-48"/>
       <use x="127.246094" xlink:href="#DejaVuSans-49"/>
       <use x="190.869141" xlink:href="#DejaVuSans-51"/>
      </g>
     </g>
    </g>
    <g id="xtick_5">
     <g id="line2d_5">
      <g>
       <use style="stroke:#000000;stroke-width:0.8;" x="460.739454" xlink:href="#m0e5cfbca6d" y="531.2"/>
      </g>
     </g>
     <g id="text_5">
      <!-- 2014 -->
      <g transform="translate(448.014454 545.798437)scale(0.1 -0.1)">
       <defs>
        <path d="M 37.796875 64.3125 
L 12.890625 25.390625 
L 37.796875 25.390625 
z
M 35.203125 72.90625 
L 47.609375 72.90625 
L 47.609375 25.390625 
L 58.015625 25.390625 
L 58.015625 17.1875 
L 47.609375 17.1875 
L 47.609375 0 
L 37.796875 0 
L 37.796875 17.1875 
L 4.890625 17.1875 
L 4.890625 26.703125 
z
" id="DejaVuSans-52"/>
       </defs>
       <use xlink:href="#DejaVuSans-50"/>
       <use x="63.623047" xlink:href="#DejaVuSans-48"/>
       <use x="127.246094" xlink:href="#DejaVuSans-49"/>
       <use x="190.869141" xlink:href="#DejaVuSans-52"/>
      </g>
     </g>
    </g>
    <g id="xtick_6">
     <g id="line2d_6">
      <g>
       <use style="stroke:#000000;stroke-width:0.8;" x="551.694619" xlink:href="#m0e5cfbca6d" y="531.2"/>
      </g>
     </g>
     <g id="text_6">
      <!-- 2015 -->
      <g transform="translate(538.969619 545.798437)scale(0.1 -0.1)">
       <defs>
        <path d="M 10.796875 72.90625 
L 49.515625 72.90625 
L 49.515625 64.59375 
L 19.828125 64.59375 
L 19.828125 46.734375 
Q 21.96875 47.46875 24.109375 47.828125 
Q 26.265625 48.1875 28.421875 48.1875 
Q 40.625 48.1875 47.75 41.5 
Q 54.890625 34.8125 54.890625 23.390625 
Q 54.890625 11.625 47.5625 5.09375 
Q 40.234375 -1.421875 26.90625 -1.421875 
Q 22.3125 -1.421875 17.546875 -0.640625 
Q 12.796875 0.140625 7.71875 1.703125 
L 7.71875 11.625 
Q 12.109375 9.234375 16.796875 8.0625 
Q 21.484375 6.890625 26.703125 6.890625 
Q 35.15625 6.890625 40.078125 11.328125 
Q 45.015625 15.765625 45.015625 23.390625 
Q 45.015625 31 40.078125 35.4375 
Q 35.15625 39.890625 26.703125 39.890625 
Q 22.75 39.890625 18.8125 39.015625 
Q 14.890625 38.140625 10.796875 36.28125 
z
" id="DejaVuSans-53"/>
       </defs>
       <use xlink:href="#DejaVuSans-50"/>
       <use x="63.623047" xlink:href="#DejaVuSans-48"/>
       <use x="127.246094" xlink:href="#DejaVuSans-49"/>
       <use x="190.869141" xlink:href="#DejaVuSans-53"/>
      </g>
     </g>
    </g>
    <g id="text_7">
     <!-- Day -->
     <g transform="translate(297.756242 560.99625)scale(0.12 -0.12)">
      <defs>
       <path d="M 19.671875 64.796875 
L 19.671875 8.109375 
L 31.59375 8.109375 
Q 46.6875 8.109375 53.6875 14.9375 
Q 60.6875 21.78125 60.6875 36.53125 
Q 60.6875 51.171875 53.6875 57.984375 
Q 46.6875 64.796875 31.59375 64.796875 
z
M 9.8125 72.90625 
L 30.078125 72.90625 
Q 51.265625 72.90625 61.171875 64.09375 
Q 71.09375 55.28125 71.09375 36.53125 
Q 71.09375 17.671875 61.125 8.828125 
Q 51.171875 0 30.078125 0 
L 9.8125 0 
z
" id="DejaVuSans-68"/>
       <path d="M 34.28125 27.484375 
Q 23.390625 27.484375 19.1875 25 
Q 14.984375 22.515625 14.984375 16.5 
Q 14.984375 11.71875 18.140625 8.90625 
Q 21.296875 6.109375 26.703125 6.109375 
Q 34.1875 6.109375 38.703125 11.40625 
Q 43.21875 16.703125 43.21875 25.484375 
L 43.21875 27.484375 
z
M 52.203125 31.203125 
L 52.203125 0 
L 43.21875 0 
L 43.21875 8.296875 
Q 40.140625 3.328125 35.546875 0.953125 
Q 30.953125 -1.421875 24.3125 -1.421875 
Q 15.921875 -1.421875 10.953125 3.296875 
Q 6 8.015625 6 15.921875 
Q 6 25.140625 12.171875 29.828125 
Q 18.359375 34.515625 30.609375 34.515625 
L 43.21875 34.515625 
L 43.21875 35.40625 
Q 43.21875 41.609375 39.140625 45 
Q 35.0625 48.390625 27.6875 48.390625 
Q 23 48.390625 18.546875 47.265625 
Q 14.109375 46.140625 10.015625 43.890625 
L 10.015625 52.203125 
Q 14.9375 54.109375 19.578125 55.046875 
Q 24.21875 56 28.609375 56 
Q 40.484375 56 46.34375 49.84375 
Q 52.203125 43.703125 52.203125 31.203125 
z
" id="DejaVuSans-97"/>
       <path d="M 32.171875 -5.078125 
Q 28.375 -14.84375 24.75 -17.8125 
Q 21.140625 -20.796875 15.09375 -20.796875 
L 7.90625 -20.796875 
L 7.90625 -13.28125 
L 13.1875 -13.28125 
Q 16.890625 -13.28125 18.9375 -11.515625 
Q 21 -9.765625 23.484375 -3.21875 
L 25.09375 0.875 
L 2.984375 54.6875 
L 12.5 54.6875 
L 29.59375 11.921875 
L 46.6875 54.6875 
L 56.203125 54.6875 
z
" id="DejaVuSans-121"/>
      </defs>
      <use xlink:href="#DejaVuSans-68"/>
      <use x="77.001953" xlink:href="#DejaVuSans-97"/>
      <use x="138.28125" xlink:href="#DejaVuSans-121"/>
     </g>
    </g>
   </g>
   <g id="matplotlib.axis_2">
    <g id="ytick_1">
     <g id="line2d_7">
      <defs>
       <path d="M 0 0 
L -3.5 0 
" id="me26cf5028f" style="stroke:#000000;stroke-width:0.8;"/>
      </defs>
      <g>
       <use style="stroke:#000000;stroke-width:0.8;" x="60.3" xlink:href="#me26cf5028f" y="508.717853"/>
      </g>
     </g>
     <g id="text_8">
      <!-- 0 -->
      <g transform="translate(46.9375 512.517072)scale(0.1 -0.1)">
       <use xlink:href="#DejaVuSans-48"/>
      </g>
     </g>
    </g>
    <g id="ytick_2">
     <g id="line2d_8">
      <g>
       <use style="stroke:#000000;stroke-width:0.8;" x="60.3" xlink:href="#me26cf5028f" y="418.137086"/>
      </g>
     </g>
     <g id="text_9">
      <!-- 1000 -->
      <g transform="translate(27.85 421.936305)scale(0.1 -0.1)">
       <use xlink:href="#DejaVuSans-49"/>
       <use x="63.623047" xlink:href="#DejaVuSans-48"/>
       <use x="127.246094" xlink:href="#DejaVuSans-48"/>
       <use x="190.869141" xlink:href="#DejaVuSans-48"/>
      </g>
     </g>
    </g>
    <g id="ytick_3">
     <g id="line2d_9">
      <g>
       <use style="stroke:#000000;stroke-width:0.8;" x="60.3" xlink:href="#me26cf5028f" y="327.556318"/>
      </g>
     </g>
     <g id="text_10">
      <!-- 2000 -->
      <g transform="translate(27.85 331.355537)scale(0.1 -0.1)">
       <use xlink:href="#DejaVuSans-50"/>
       <use x="63.623047" xlink:href="#DejaVuSans-48"/>
       <use x="127.246094" xlink:href="#DejaVuSans-48"/>
       <use x="190.869141" xlink:href="#DejaVuSans-48"/>
      </g>
     </g>
    </g>
    <g id="ytick_4">
     <g id="line2d_10">
      <g>
       <use style="stroke:#000000;stroke-width:0.8;" x="60.3" xlink:href="#me26cf5028f" y="236.975551"/>
      </g>
     </g>
     <g id="text_11">
      <!-- 3000 -->
      <g transform="translate(27.85 240.77477)scale(0.1 -0.1)">
       <use xlink:href="#DejaVuSans-51"/>
       <use x="63.623047" xlink:href="#DejaVuSans-48"/>
       <use x="127.246094" xlink:href="#DejaVuSans-48"/>
       <use x="190.869141" xlink:href="#DejaVuSans-48"/>
      </g>
     </g>
    </g>
    <g id="ytick_5">
     <g id="line2d_11">
      <g>
       <use style="stroke:#000000;stroke-width:0.8;" x="60.3" xlink:href="#me26cf5028f" y="146.394783"/>
      </g>
     </g>
     <g id="text_12">
      <!-- 4000 -->
      <g transform="translate(27.85 150.194002)scale(0.1 -0.1)">
       <use xlink:href="#DejaVuSans-52"/>
       <use x="63.623047" xlink:href="#DejaVuSans-48"/>
       <use x="127.246094" xlink:href="#DejaVuSans-48"/>
       <use x="190.869141" xlink:href="#DejaVuSans-48"/>
      </g>
     </g>
    </g>
    <g id="ytick_6">
     <g id="line2d_12">
      <g>
       <use style="stroke:#000000;stroke-width:0.8;" x="60.3" xlink:href="#me26cf5028f" y="55.814016"/>
      </g>
     </g>
     <g id="text_13">
      <!-- 5000 -->
      <g transform="translate(27.85 59.613235)scale(0.1 -0.1)">
       <use xlink:href="#DejaVuSans-53"/>
       <use x="63.623047" xlink:href="#DejaVuSans-48"/>
       <use x="127.246094" xlink:href="#DejaVuSans-48"/>
       <use x="190.869141" xlink:href="#DejaVuSans-48"/>
      </g>
     </g>
    </g>
    <g id="text_14">
     <!-- Number of Reweets -->
     <g transform="translate(21.354375 341.959687)rotate(-90)scale(0.12 -0.12)">
      <defs>
       <path d="M 9.8125 72.90625 
L 23.09375 72.90625 
L 55.421875 11.921875 
L 55.421875 72.90625 
L 64.984375 72.90625 
L 64.984375 0 
L 51.703125 0 
L 19.390625 60.984375 
L 19.390625 0 
L 9.8125 0 
z
" id="DejaVuSans-78"/>
       <path d="M 8.5 21.578125 
L 8.5 54.6875 
L 17.484375 54.6875 
L 17.484375 21.921875 
Q 17.484375 14.15625 20.5 10.265625 
Q 23.53125 6.390625 29.59375 6.390625 
Q 36.859375 6.390625 41.078125 11.03125 
Q 45.3125 15.671875 45.3125 23.6875 
L 45.3125 54.6875 
L 54.296875 54.6875 
L 54.296875 0 
L 45.3125 0 
L 45.3125 8.40625 
Q 42.046875 3.421875 37.71875 1 
Q 33.40625 -1.421875 27.6875 -1.421875 
Q 18.265625 -1.421875 13.375 4.4375 
Q 8.5 10.296875 8.5 21.578125 
z
M 31.109375 56 
z
" id="DejaVuSans-117"/>
       <path d="M 52 44.1875 
Q 55.375 50.25 60.0625 53.125 
Q 64.75 56 71.09375 56 
Q 79.640625 56 84.28125 50.015625 
Q 88.921875 44.046875 88.921875 33.015625 
L 88.921875 0 
L 79.890625 0 
L 79.890625 32.71875 
Q 79.890625 40.578125 77.09375 44.375 
Q 74.3125 48.1875 68.609375 48.1875 
Q 61.625 48.1875 57.5625 43.546875 
Q 53.515625 38.921875 53.515625 30.90625 
L 53.515625 0 
L 44.484375 0 
L 44.484375 32.71875 
Q 44.484375 40.625 41.703125 44.40625 
Q 38.921875 48.1875 33.109375 48.1875 
Q 26.21875 48.1875 22.15625 43.53125 
Q 18.109375 38.875 18.109375 30.90625 
L 18.109375 0 
L 9.078125 0 
L 9.078125 54.6875 
L 18.109375 54.6875 
L 18.109375 46.1875 
Q 21.1875 51.21875 25.484375 53.609375 
Q 29.78125 56 35.6875 56 
Q 41.65625 56 45.828125 52.96875 
Q 50 49.953125 52 44.1875 
z
" id="DejaVuSans-109"/>
       <path d="M 48.6875 27.296875 
Q 48.6875 37.203125 44.609375 42.84375 
Q 40.53125 48.484375 33.40625 48.484375 
Q 26.265625 48.484375 22.1875 42.84375 
Q 18.109375 37.203125 18.109375 27.296875 
Q 18.109375 17.390625 22.1875 11.75 
Q 26.265625 6.109375 33.40625 6.109375 
Q 40.53125 6.109375 44.609375 11.75 
Q 48.6875 17.390625 48.6875 27.296875 
z
M 18.109375 46.390625 
Q 20.953125 51.265625 25.265625 53.625 
Q 29.59375 56 35.59375 56 
Q 45.5625 56 51.78125 48.09375 
Q 58.015625 40.1875 58.015625 27.296875 
Q 58.015625 14.40625 51.78125 6.484375 
Q 45.5625 -1.421875 35.59375 -1.421875 
Q 29.59375 -1.421875 25.265625 0.953125 
Q 20.953125 3.328125 18.109375 8.203125 
L 18.109375 0 
L 9.078125 0 
L 9.078125 75.984375 
L 18.109375 75.984375 
z
" id="DejaVuSans-98"/>
       <path d="M 56.203125 29.59375 
L 56.203125 25.203125 
L 14.890625 25.203125 
Q 15.484375 15.921875 20.484375 11.0625 
Q 25.484375 6.203125 34.421875 6.203125 
Q 39.59375 6.203125 44.453125 7.46875 
Q 49.3125 8.734375 54.109375 11.28125 
L 54.109375 2.78125 
Q 49.265625 0.734375 44.1875 -0.34375 
Q 39.109375 -1.421875 33.890625 -1.421875 
Q 20.796875 -1.421875 13.15625 6.1875 
Q 5.515625 13.8125 5.515625 26.8125 
Q 5.515625 40.234375 12.765625 48.109375 
Q 20.015625 56 32.328125 56 
Q 43.359375 56 49.78125 48.890625 
Q 56.203125 41.796875 56.203125 29.59375 
z
M 47.21875 32.234375 
Q 47.125 39.59375 43.09375 43.984375 
Q 39.0625 48.390625 32.421875 48.390625 
Q 24.90625 48.390625 20.390625 44.140625 
Q 15.875 39.890625 15.1875 32.171875 
z
" id="DejaVuSans-101"/>
       <path d="M 41.109375 46.296875 
Q 39.59375 47.171875 37.8125 47.578125 
Q 36.03125 48 33.890625 48 
Q 26.265625 48 22.1875 43.046875 
Q 18.109375 38.09375 18.109375 28.8125 
L 18.109375 0 
L 9.078125 0 
L 9.078125 54.6875 
L 18.109375 54.6875 
L 18.109375 46.1875 
Q 20.953125 51.171875 25.484375 53.578125 
Q 30.03125 56 36.53125 56 
Q 37.453125 56 38.578125 55.875 
Q 39.703125 55.765625 41.0625 55.515625 
z
" id="DejaVuSans-114"/>
       <path id="DejaVuSans-32"/>
       <path d="M 30.609375 48.390625 
Q 23.390625 48.390625 19.1875 42.75 
Q 14.984375 37.109375 14.984375 27.296875 
Q 14.984375 17.484375 19.15625 11.84375 
Q 23.34375 6.203125 30.609375 6.203125 
Q 37.796875 6.203125 41.984375 11.859375 
Q 46.1875 17.53125 46.1875 27.296875 
Q 46.1875 37.015625 41.984375 42.703125 
Q 37.796875 48.390625 30.609375 48.390625 
z
M 30.609375 56 
Q 42.328125 56 49.015625 48.375 
Q 55.71875 40.765625 55.71875 27.296875 
Q 55.71875 13.875 49.015625 6.21875 
Q 42.328125 -1.421875 30.609375 -1.421875 
Q 18.84375 -1.421875 12.171875 6.21875 
Q 5.515625 13.875 5.515625 27.296875 
Q 5.515625 40.765625 12.171875 48.375 
Q 18.84375 56 30.609375 56 
z
" id="DejaVuSans-111"/>
       <path d="M 37.109375 75.984375 
L 37.109375 68.5 
L 28.515625 68.5 
Q 23.6875 68.5 21.796875 66.546875 
Q 19.921875 64.59375 19.921875 59.515625 
L 19.921875 54.6875 
L 34.71875 54.6875 
L 34.71875 47.703125 
L 19.921875 47.703125 
L 19.921875 0 
L 10.890625 0 
L 10.890625 47.703125 
L 2.296875 47.703125 
L 2.296875 54.6875 
L 10.890625 54.6875 
L 10.890625 58.5 
Q 10.890625 67.625 15.140625 71.796875 
Q 19.390625 75.984375 28.609375 75.984375 
z
" id="DejaVuSans-102"/>
       <path d="M 44.390625 34.1875 
Q 47.5625 33.109375 50.5625 29.59375 
Q 53.5625 26.078125 56.59375 19.921875 
L 66.609375 0 
L 56 0 
L 46.6875 18.703125 
Q 43.0625 26.03125 39.671875 28.421875 
Q 36.28125 30.8125 30.421875 30.8125 
L 19.671875 30.8125 
L 19.671875 0 
L 9.8125 0 
L 9.8125 72.90625 
L 32.078125 72.90625 
Q 44.578125 72.90625 50.734375 67.671875 
Q 56.890625 62.453125 56.890625 51.90625 
Q 56.890625 45.015625 53.6875 40.46875 
Q 50.484375 35.9375 44.390625 34.1875 
z
M 19.671875 64.796875 
L 19.671875 38.921875 
L 32.078125 38.921875 
Q 39.203125 38.921875 42.84375 42.21875 
Q 46.484375 45.515625 46.484375 51.90625 
Q 46.484375 58.296875 42.84375 61.546875 
Q 39.203125 64.796875 32.078125 64.796875 
z
" id="DejaVuSans-82"/>
       <path d="M 4.203125 54.6875 
L 13.1875 54.6875 
L 24.421875 12.015625 
L 35.59375 54.6875 
L 46.1875 54.6875 
L 57.421875 12.015625 
L 68.609375 54.6875 
L 77.59375 54.6875 
L 63.28125 0 
L 52.6875 0 
L 40.921875 44.828125 
L 29.109375 0 
L 18.5 0 
z
" id="DejaVuSans-119"/>
       <path d="M 18.3125 70.21875 
L 18.3125 54.6875 
L 36.8125 54.6875 
L 36.8125 47.703125 
L 18.3125 47.703125 
L 18.3125 18.015625 
Q 18.3125 11.328125 20.140625 9.421875 
Q 21.96875 7.515625 27.59375 7.515625 
L 36.8125 7.515625 
L 36.8125 0 
L 27.59375 0 
Q 17.1875 0 13.234375 3.875 
Q 9.28125 7.765625 9.28125 18.015625 
L 9.28125 47.703125 
L 2.6875 47.703125 
L 2.6875 54.6875 
L 9.28125 54.6875 
L 9.28125 70.21875 
z
" id="DejaVuSans-116"/>
       <path d="M 44.28125 53.078125 
L 44.28125 44.578125 
Q 40.484375 46.53125 36.375 47.5 
Q 32.28125 48.484375 27.875 48.484375 
Q 21.1875 48.484375 17.84375 46.4375 
Q 14.5 44.390625 14.5 40.28125 
Q 14.5 37.15625 16.890625 35.375 
Q 19.28125 33.59375 26.515625 31.984375 
L 29.59375 31.296875 
Q 39.15625 29.25 43.1875 25.515625 
Q 47.21875 21.78125 47.21875 15.09375 
Q 47.21875 7.46875 41.1875 3.015625 
Q 35.15625 -1.421875 24.609375 -1.421875 
Q 20.21875 -1.421875 15.453125 -0.5625 
Q 10.6875 0.296875 5.421875 2 
L 5.421875 11.28125 
Q 10.40625 8.6875 15.234375 7.390625 
Q 20.0625 6.109375 24.8125 6.109375 
Q 31.15625 6.109375 34.5625 8.28125 
Q 37.984375 10.453125 37.984375 14.40625 
Q 37.984375 18.0625 35.515625 20.015625 
Q 33.0625 21.96875 24.703125 23.78125 
L 21.578125 24.515625 
Q 13.234375 26.265625 9.515625 29.90625 
Q 5.8125 33.546875 5.8125 39.890625 
Q 5.8125 47.609375 11.28125 51.796875 
Q 16.75 56 26.8125 56 
Q 31.78125 56 36.171875 55.265625 
Q 40.578125 54.546875 44.28125 53.078125 
z
" id="DejaVuSans-115"/>
      </defs>
      <use xlink:href="#DejaVuSans-78"/>
      <use x="74.804688" xlink:href="#DejaVuSans-117"/>
      <use x="138.183594" xlink:href="#DejaVuSans-109"/>
      <use x="235.595703" xlink:href="#DejaVuSans-98"/>
      <use x="299.072266" xlink:href="#DejaVuSans-101"/>
      <use x="360.595703" xlink:href="#DejaVuSans-114"/>
      <use x="401.708984" xlink:href="#DejaVuSans-32"/>
      <use x="433.496094" xlink:href="#DejaVuSans-111"/>
      <use x="494.677734" xlink:href="#DejaVuSans-102"/>
      <use x="529.882812" xlink:href="#DejaVuSans-32"/>
      <use x="561.669922" xlink:href="#DejaVuSans-82"/>
      <use x="626.652344" xlink:href="#DejaVuSans-101"/>
      <use x="688.175781" xlink:href="#DejaVuSans-119"/>
      <use x="769.962891" xlink:href="#DejaVuSans-101"/>
      <use x="831.486328" xlink:href="#DejaVuSans-101"/>
      <use x="893.009766" xlink:href="#DejaVuSans-116"/>
      <use x="932.21875" xlink:href="#DejaVuSans-115"/>
     </g>
    </g>
   </g>
   <g id="line2d_13">
    <path clip-path="url(#p3d8a352425)" d="M 82.964033 508.627273 
L 84.459187 508.627273 
L 84.957571 508.446111 
L 85.206763 508.627273 
L 85.705148 508.627273 
L 85.95434 507.902627 
L 86.203532 508.536692 
L 86.701917 508.174369 
L 86.951109 508.627273 
L 87.698686 508.26495 
L 87.947878 508.536692 
L 88.695455 507.902627 
L 88.944647 508.627273 
L 89.193839 508.35553 
L 89.443031 508.536692 
L 89.941416 508.446111 
L 90.190608 508.627273 
L 90.4398 507.993207 
L 90.688992 508.26495 
L 90.938185 508.174369 
L 91.187377 508.536692 
L 91.436569 508.627273 
L 92.184146 508.536692 
L 92.433338 507.902627 
L 92.931723 508.35553 
L 93.180915 508.627273 
L 93.430107 508.627273 
L 93.928491 508.446111 
L 94.177684 508.536692 
L 99.659913 508.536692 
L 99.909105 508.26495 
L 100.158297 508.35553 
L 100.407489 508.627273 
L 100.905874 508.35553 
L 101.653451 508.446111 
L 101.902643 508.536692 
L 102.151835 507.993207 
L 102.65022 508.446111 
L 102.899412 508.174369 
L 103.148604 508.627273 
L 103.397796 508.627273 
L 103.646988 508.083788 
L 103.896181 508.536692 
L 104.145373 508.627273 
L 104.394565 508.35553 
L 104.643757 508.35553 
L 104.89295 508.536692 
L 105.640526 508.627273 
L 106.138911 508.35553 
L 106.388103 508.536692 
L 107.13568 508.627273 
L 107.384872 508.083788 
L 107.634064 508.536692 
L 107.883256 508.627273 
L 108.132449 508.26495 
L 108.630833 508.26495 
L 108.880025 508.536692 
L 109.627602 508.627273 
L 109.876794 508.26495 
L 110.125986 508.174369 
L 110.375179 508.35553 
L 110.624371 508.26495 
L 110.873563 508.536692 
L 111.122755 508.446111 
L 111.371948 507.902627 
L 111.62114 507.902627 
L 111.870332 508.446111 
L 112.119524 508.627273 
L 112.867101 508.35553 
L 113.365485 508.446111 
L 113.614678 507.993207 
L 113.86387 507.993207 
L 114.362254 508.536692 
L 114.611447 508.35553 
L 114.860639 507.993207 
L 115.109831 508.35553 
L 115.359023 508.26495 
L 115.608216 508.536692 
L 116.355792 508.446111 
L 116.604984 508.26495 
L 116.854177 507.630884 
L 117.103369 508.536692 
L 117.352561 507.630884 
L 117.601753 508.26495 
L 117.850946 507.993207 
L 118.100138 508.35553 
L 118.34933 508.174369 
L 118.598522 508.26495 
L 118.847715 507.902627 
L 119.096907 508.35553 
L 119.346099 508.26495 
L 119.844483 508.536692 
L 120.093676 508.174369 
L 120.59206 508.446111 
L 121.090445 508.174369 
L 121.339637 508.446111 
L 121.588829 508.35553 
L 122.087213 508.446111 
L 122.336406 507.993207 
L 122.585598 508.174369 
L 122.83479 508.083788 
L 123.333175 508.627273 
L 123.582367 508.35553 
L 123.831559 507.268561 
L 124.080751 508.446111 
L 124.329944 507.812046 
L 124.579136 507.812046 
L 124.828328 508.446111 
L 125.07752 508.083788 
L 125.326712 507.993207 
L 125.575905 508.174369 
L 125.825097 508.174369 
L 126.074289 508.35553 
L 126.821866 508.446111 
L 127.071058 508.627273 
L 127.32025 507.902627 
L 127.569443 508.536692 
L 127.818635 508.174369 
L 128.067827 508.083788 
L 128.317019 508.35553 
L 128.566211 506.996819 
L 128.815404 508.083788 
L 129.064596 508.083788 
L 129.313788 508.446111 
L 129.56298 507.359142 
L 129.812173 508.174369 
L 130.310557 508.446111 
L 130.559749 508.083788 
L 130.808942 507.449723 
L 131.307326 508.083788 
L 131.80571 507.902627 
L 132.054903 508.26495 
L 132.304095 508.174369 
L 132.553287 508.26495 
L 132.802479 507.268561 
L 133.051672 507.721465 
L 133.300864 506.906238 
L 133.550056 507.268561 
L 133.799248 508.26495 
L 134.048441 508.446111 
L 134.297633 507.630884 
L 134.546825 507.993207 
L 134.796017 507.812046 
L 135.045209 507.902627 
L 135.294402 508.446111 
L 135.543594 508.174369 
L 135.792786 508.446111 
L 136.041978 507.902627 
L 136.291171 507.630884 
L 136.540363 507.630884 
L 136.789555 507.812046 
L 137.038747 508.536692 
L 137.537132 507.449723 
L 137.786324 508.083788 
L 138.035516 507.449723 
L 138.284708 507.17798 
L 138.533901 507.993207 
L 138.783093 508.083788 
L 139.032285 508.35553 
L 139.281477 508.26495 
L 139.53067 507.902627 
L 139.779862 503.55475 
L 140.029054 507.721465 
L 140.278246 508.26495 
L 140.776631 508.446111 
L 141.025823 507.721465 
L 141.524207 508.446111 
L 142.022592 507.268561 
L 142.271784 508.26495 
L 142.770169 508.35553 
L 143.268553 508.083788 
L 143.517745 508.174369 
L 143.766938 507.630884 
L 144.01613 508.446111 
L 144.265322 507.993207 
L 144.514514 507.812046 
L 144.763706 508.083788 
L 145.012899 507.993207 
L 145.262091 507.359142 
L 146.009668 508.536692 
L 146.25886 507.630884 
L 146.508052 507.17798 
L 146.757244 507.540304 
L 147.006437 508.174369 
L 147.255629 508.26495 
L 147.504821 508.536692 
L 147.754013 508.083788 
L 148.252398 507.812046 
L 148.50159 506.906238 
L 148.750782 506.996819 
L 148.999974 507.902627 
L 149.249167 500.927907 
L 149.498359 506.634496 
L 149.747551 507.540304 
L 149.996743 507.0874 
L 150.245936 507.268561 
L 150.495128 507.993207 
L 150.74432 507.993207 
L 150.993512 503.373588 
L 151.242704 501.924296 
L 151.491897 507.993207 
L 151.741089 507.630884 
L 151.990281 507.721465 
L 152.239473 508.083788 
L 152.488666 506.634496 
L 152.737858 507.993207 
L 153.236242 508.35553 
L 153.485435 507.721465 
L 153.734627 507.721465 
L 153.983819 507.359142 
L 154.233011 507.449723 
L 154.482203 507.0874 
L 154.731396 507.359142 
L 154.980588 506.996819 
L 155.22978 504.369977 
L 155.478972 504.913461 
L 155.728165 504.641719 
L 155.977357 507.0874 
L 156.475741 507.540304 
L 156.724934 506.543915 
L 156.974126 507.0874 
L 157.223318 507.0874 
L 157.47251 507.449723 
L 157.721702 507.268561 
L 157.970895 505.456946 
L 158.220087 507.812046 
L 158.469279 508.174369 
L 158.718471 508.174369 
L 158.967664 507.721465 
L 159.216856 507.993207 
L 159.466048 506.634496 
L 159.71524 508.174369 
L 159.964433 507.721465 
L 160.213625 508.083788 
L 160.712009 506.815657 
L 160.961201 507.359142 
L 161.210394 505.90985 
L 161.459586 507.902627 
L 161.708778 506.091011 
L 161.95797 507.0874 
L 162.207163 507.359142 
L 163.203931 507.0874 
L 163.453124 507.540304 
L 163.702316 503.735911 
L 163.951508 507.17798 
L 164.2007 507.721465 
L 164.449893 507.359142 
L 164.699085 506.362754 
L 164.948277 507.721465 
L 165.197469 507.902627 
L 165.695854 506.634496 
L 165.945046 506.725077 
L 166.44343 506.453334 
L 166.692623 506.634496 
L 166.941815 507.17798 
L 167.191007 505.638107 
L 167.689392 506.725077 
L 167.938584 507.540304 
L 168.187776 507.359142 
L 168.436968 507.630884 
L 168.686161 507.630884 
L 168.935353 506.815657 
L 169.184545 507.268561 
L 169.433737 506.091011 
L 169.682929 505.819269 
L 169.932122 507.17798 
L 170.181314 506.815657 
L 170.430506 507.721465 
L 170.679698 507.268561 
L 170.928891 507.268561 
L 171.178083 507.0874 
L 171.427275 507.268561 
L 171.676467 507.17798 
L 171.92566 507.721465 
L 172.424044 507.268561 
L 172.922428 507.540304 
L 173.171621 506.362754 
L 173.420813 507.902627 
L 173.919197 507.812046 
L 174.16839 507.449723 
L 174.417582 507.540304 
L 174.666774 507.0874 
L 174.915966 507.721465 
L 175.165159 507.721465 
L 175.414351 508.083788 
L 175.663543 508.083788 
L 176.161927 506.634496 
L 176.41112 507.359142 
L 176.909504 506.00043 
L 177.158696 507.540304 
L 178.155465 504.460557 
L 178.404658 506.634496 
L 178.65385 506.272173 
L 178.903042 506.543915 
L 179.401426 505.90985 
L 179.650619 506.091011 
L 179.899811 505.547527 
L 180.149003 506.543915 
L 180.398195 503.826492 
L 180.647388 506.815657 
L 181.145772 505.728688 
L 181.644157 506.634496 
L 181.893349 505.094623 
L 182.391733 507.540304 
L 182.890118 505.638107 
L 183.13931 502.558361 
L 183.388502 502.467781 
L 183.637694 504.82288 
L 184.136079 506.996819 
L 184.385271 506.906238 
L 184.634463 503.373588 
L 184.883656 503.917073 
L 185.132848 506.543915 
L 185.38204 504.188815 
L 185.631232 507.268561 
L 185.880424 506.815657 
L 186.129617 507.630884 
L 186.378809 507.902627 
L 186.628001 506.543915 
L 186.877193 506.091011 
L 187.126386 507.449723 
L 187.873962 507.449723 
L 188.621539 506.725077 
L 188.870731 506.996819 
L 189.119923 507.540304 
L 189.369116 507.268561 
L 189.618308 507.540304 
L 189.8675 506.091011 
L 190.116692 506.815657 
L 190.365885 506.725077 
L 190.615077 505.819269 
L 190.864269 507.0874 
L 191.113461 506.906238 
L 191.362654 507.993207 
L 191.611846 506.00043 
L 191.861038 505.90985 
L 192.11023 505.638107 
L 192.359422 506.634496 
L 192.608615 506.00043 
L 192.857807 507.721465 
L 193.106999 506.272173 
L 193.356191 506.996819 
L 193.605384 506.453334 
L 193.854576 506.453334 
L 194.103768 506.181592 
L 194.35296 506.725077 
L 194.602153 507.630884 
L 195.100537 506.634496 
L 195.598921 506.00043 
L 195.848114 506.725077 
L 196.097306 503.101846 
L 196.346498 506.453334 
L 196.59569 506.091011 
L 196.844883 506.453334 
L 197.094075 506.272173 
L 197.343267 506.362754 
L 197.592459 506.996819 
L 197.841652 506.634496 
L 198.090844 506.996819 
L 198.340036 506.634496 
L 198.589228 506.634496 
L 198.83842 505.819269 
L 199.087613 507.449723 
L 199.585997 505.094623 
L 199.835189 506.362754 
L 200.084382 506.906238 
L 200.333574 507.0874 
L 200.582766 506.00043 
L 200.831958 505.638107 
L 201.08115 504.188815 
L 201.330343 505.456946 
L 201.579535 504.188815 
L 201.828727 505.90985 
L 202.077919 505.547527 
L 202.327112 504.641719 
L 202.576304 506.362754 
L 202.825496 505.004042 
L 203.074688 506.091011 
L 203.323881 506.362754 
L 203.573073 505.275784 
L 203.822265 506.453334 
L 204.071457 506.362754 
L 204.320649 505.547527 
L 204.569842 505.728688 
L 204.819034 503.645331 
L 205.068226 504.188815 
L 205.317418 505.456946 
L 205.566611 502.467781 
L 205.815803 505.819269 
L 206.064995 504.641719 
L 206.314187 505.90985 
L 206.56338 506.00043 
L 206.812572 505.004042 
L 207.310956 505.638107 
L 207.560148 505.185204 
L 207.809341 506.543915 
L 208.058533 506.634496 
L 208.307725 504.7323 
L 208.80611 506.725077 
L 209.304494 502.920684 
L 209.802879 504.7323 
L 210.052071 504.82288 
L 210.301263 506.181592 
L 210.550455 503.55475 
L 210.799647 504.188815 
L 211.298032 503.645331 
L 211.547224 504.551138 
L 211.796416 502.739523 
L 212.045609 504.82288 
L 212.294801 505.728688 
L 212.543993 503.55475 
L 212.793185 504.82288 
L 213.042378 502.739523 
L 213.29157 503.735911 
L 213.540762 503.373588 
L 213.789954 505.638107 
L 214.039146 506.543915 
L 214.288339 504.007654 
L 214.537531 505.004042 
L 214.786723 504.551138 
L 215.035915 504.82288 
L 215.285108 505.275784 
L 215.5343 507.268561 
L 215.783492 506.906238 
L 216.281877 504.641719 
L 216.780261 505.275784 
L 217.029453 504.82288 
L 217.527838 505.819269 
L 217.77703 500.927907 
L 218.026222 503.735911 
L 218.275414 504.188815 
L 218.524607 505.456946 
L 219.022991 506.543915 
L 219.272183 505.366365 
L 219.521376 505.728688 
L 219.770568 504.369977 
L 220.01976 504.279396 
L 220.268952 504.82288 
L 220.518144 503.645331 
L 220.767337 503.464169 
L 221.016529 502.3772 
L 221.265721 504.551138 
L 221.514913 503.464169 
L 221.764106 500.927907 
L 222.013298 501.471392 
L 222.511682 505.547527 
L 222.760875 499.840938 
L 223.010067 505.638107 
L 223.259259 503.011265 
L 223.508451 502.286619 
L 223.757643 503.735911 
L 224.006836 501.018488 
L 224.256028 504.641719 
L 224.50522 504.7323 
L 224.754412 501.561973 
L 225.003605 504.641719 
L 225.252797 504.82288 
L 225.501989 501.924296 
L 225.751181 505.547527 
L 226.000374 503.917073 
L 226.249566 504.82288 
L 226.498758 501.19965 
L 226.74795 501.833715 
L 226.997142 503.826492 
L 227.246335 502.286619 
L 227.495527 502.558361 
L 227.744719 505.547527 
L 227.993911 503.464169 
L 228.243104 502.739523 
L 228.492296 505.456946 
L 228.741488 501.380811 
L 228.99068 500.475004 
L 229.489065 505.547527 
L 229.738257 502.648942 
L 230.236641 499.478615 
L 230.485834 503.645331 
L 230.735026 502.739523 
L 231.23341 505.004042 
L 231.482603 502.648942 
L 231.731795 502.3772 
L 231.980987 504.007654 
L 232.230179 503.283007 
L 232.479372 504.098234 
L 232.977756 503.735911 
L 233.226948 503.735911 
L 233.47614 505.819269 
L 233.725333 504.007654 
L 233.974525 504.279396 
L 234.223717 502.105457 
L 234.472909 501.833715 
L 234.722102 503.55475 
L 234.971294 499.388034 
L 235.220486 505.004042 
L 235.469678 501.19965 
L 235.718871 503.917073 
L 235.968063 502.558361 
L 236.217255 502.105457 
L 236.466447 501.018488 
L 236.715639 504.913461 
L 236.964832 502.3772 
L 237.463216 500.746746 
L 237.712408 500.0221 
L 237.961601 502.286619 
L 238.210793 502.830104 
L 238.459985 503.826492 
L 238.95837 500.837327 
L 239.207562 499.478615 
L 239.456754 504.82288 
L 239.705946 501.652554 
L 239.955138 500.565584 
L 240.204331 505.094623 
L 240.702715 500.837327 
L 240.951907 502.014877 
L 241.2011 498.482227 
L 241.450292 501.109069 
L 241.699484 501.109069 
L 241.948676 504.098234 
L 242.197868 499.931519 
L 242.447061 501.833715 
L 242.696253 500.837327 
L 242.945445 502.558361 
L 243.194637 501.19965 
L 243.44383 498.029323 
L 243.693022 498.210484 
L 244.191406 500.475004 
L 244.440599 495.3119 
L 244.689791 499.569196 
L 245.188175 501.924296 
L 245.437367 501.743134 
L 245.68656 500.293842 
L 245.935752 497.304677 
L 246.434136 501.743134 
L 246.683329 497.938742 
L 246.932521 500.475004 
L 247.181713 499.297454 
L 247.680098 493.590865 
L 247.92929 500.656165 
L 248.178482 502.3772 
L 248.427674 500.565584 
L 248.676866 501.109069 
L 248.926059 500.837327 
L 249.175251 497.938742 
L 249.424443 499.388034 
L 249.673635 498.935131 
L 249.922828 492.9568 
L 250.421212 502.105457 
L 250.670404 496.851773 
L 250.919597 499.116292 
L 251.168789 499.206873 
L 251.667173 492.9568 
L 251.916365 501.743134 
L 252.165558 500.293842 
L 252.41475 496.580031 
L 252.663942 498.663388 
L 252.913134 499.569196 
L 253.162327 501.380811 
L 253.411519 497.938742 
L 253.660711 496.580031 
L 253.909903 492.322735 
L 254.159096 500.475004 
L 254.408288 500.656165 
L 254.65748 495.855385 
L 254.906672 497.667 
L 255.155864 500.384423 
L 255.405057 499.478615 
L 255.654249 500.112681 
L 255.903441 499.569196 
L 256.152633 497.304677 
L 256.401826 499.659777 
L 256.90021 498.84455 
L 257.149402 500.0221 
L 257.398595 499.478615 
L 257.647787 501.19965 
L 257.896979 501.833715 
L 258.146171 498.482227 
L 258.395363 499.025711 
L 258.644556 499.025711 
L 258.893748 501.290231 
L 259.14294 501.290231 
L 259.392132 500.475004 
L 259.641325 499.116292 
L 259.890517 501.109069 
L 260.388901 496.761192 
L 260.638094 496.670611 
L 260.887286 498.935131 
L 261.136478 498.753969 
L 261.38567 496.48945 
L 261.634862 496.580031 
L 261.884055 499.659777 
L 262.133247 497.485838 
L 262.382439 497.848161 
L 262.631631 498.753969 
L 262.880824 499.025711 
L 263.130016 496.308288 
L 263.379208 499.569196 
L 263.877593 497.576419 
L 264.126785 499.931519 
L 264.375977 499.569196 
L 264.625169 499.478615 
L 264.874361 494.768415 
L 265.123554 498.482227 
L 265.372746 495.493061 
L 265.621938 500.0221 
L 265.87113 497.032934 
L 266.120323 500.112681 
L 266.369515 499.206873 
L 266.618707 495.674223 
L 266.867899 496.48945 
L 267.117092 493.047381 
L 267.366284 496.761192 
L 267.615476 497.395258 
L 267.864668 497.304677 
L 268.11386 497.032934 
L 268.363053 498.572808 
L 268.612245 496.851773 
L 268.861437 497.395258 
L 269.110629 495.040158 
L 269.359822 500.565584 
L 269.609014 498.210484 
L 269.858206 498.210484 
L 270.356591 492.141573 
L 270.605783 497.123515 
L 270.854975 495.3119 
L 271.104167 491.77925 
L 271.353359 494.406092 
L 271.602552 494.677835 
L 271.851744 494.677835 
L 272.100936 494.043769 
L 272.350128 495.855385 
L 272.599321 495.402481 
L 272.848513 493.772027 
L 273.097705 499.659777 
L 273.346897 494.496673 
L 273.59609 493.590865 
L 273.845282 496.398869 
L 274.094474 496.127127 
L 274.343666 497.848161 
L 274.592858 494.043769 
L 274.842051 500.656165 
L 275.340435 494.587254 
L 275.589627 495.493061 
L 275.83882 494.677835 
L 276.088012 496.217708 
L 276.586396 496.851773 
L 276.835589 498.119904 
L 277.084781 498.391646 
L 277.583165 499.569196 
L 277.832357 500.203261 
L 278.08155 494.406092 
L 278.330742 496.48945 
L 278.579934 500.656165 
L 278.829126 499.206873 
L 279.078319 495.402481 
L 279.327511 495.3119 
L 279.576703 495.493061 
L 279.825895 497.576419 
L 280.075087 490.964023 
L 280.32428 495.855385 
L 280.573472 486.616146 
L 280.822664 493.319123 
L 281.071856 489.695892 
L 281.819433 499.659777 
L 282.068625 494.13435 
L 282.317818 496.398869 
L 282.56701 491.598088 
L 282.816202 493.228542 
L 283.065394 493.590865 
L 283.563779 499.297454 
L 284.062163 495.130738 
L 284.311355 496.48945 
L 284.560548 493.137961 
L 284.80974 492.413315 
L 285.058932 493.953188 
L 285.308124 490.782862 
L 285.557317 497.214096 
L 285.806509 490.782862 
L 286.055701 493.047381 
L 286.304893 492.775638 
L 286.554085 488.608923 
L 286.803278 496.670611 
L 287.05247 494.677835 
L 287.301662 494.768415 
L 287.550854 490.148796 
L 287.800047 490.511119 
L 288.049239 492.050992 
L 288.298431 494.315511 
L 288.547623 495.493061 
L 288.796816 498.753969 
L 289.046008 494.043769 
L 289.2952 494.043769 
L 289.544392 492.503896 
L 289.793584 491.688669 
L 290.042777 493.319123 
L 290.291969 493.590865 
L 290.541161 495.855385 
L 290.790353 496.036546 
L 291.288738 490.511119 
L 291.53793 492.141573 
L 291.787122 492.050992 
L 292.036315 491.77925 
L 292.285507 492.413315 
L 292.534699 494.043769 
L 293.033083 490.782862 
L 293.282276 491.326346 
L 293.531468 489.786473 
L 293.78066 491.235765 
L 294.029852 493.953188 
L 294.279045 491.145185 
L 294.528237 491.77925 
L 295.026621 488.065438 
L 295.275814 483.355239 
L 295.525006 492.866219 
L 295.774198 495.130738 
L 296.02339 492.594477 
L 296.272582 486.253823 
L 297.020159 479.369685 
L 297.269351 489.061827 
L 297.518544 483.808142 
L 297.767736 476.199358 
L 298.016928 488.518342 
L 298.26612 480.184912 
L 298.515313 483.355239 
L 298.764505 484.532789 
L 299.013697 484.804531 
L 299.262889 486.253823 
L 299.512081 484.079885 
L 299.761274 484.442208 
L 300.010466 480.366073 
L 300.50885 487.793696 
L 300.758043 482.721173 
L 301.007235 488.518342 
L 301.256427 480.909558 
L 301.505619 483.264658 
L 301.754812 483.5364 
L 302.004004 485.166854 
L 302.253196 482.811754 
L 302.502388 485.982081 
L 302.75158 485.438596 
L 303.000773 487.250212 
L 303.249965 480.637816 
L 303.499157 480.456654 
L 303.748349 478.101554 
L 303.997542 482.35885 
L 304.495926 479.097943 
L 304.745118 479.550846 
L 304.994311 479.007362 
L 305.243503 483.264658 
L 305.492695 481.815366 
L 305.741887 485.438596 
L 305.991079 487.340792 
L 306.240272 485.8915 
L 306.489464 481.090719 
L 306.738656 487.793696 
L 306.987848 482.449431 
L 307.237041 487.431373 
L 307.486233 477.739231 
L 307.735425 485.166854 
L 307.984617 483.5364 
L 308.23381 491.054604 
L 308.483002 485.166854 
L 308.732194 485.438596 
L 308.981386 478.8262 
L 309.230578 483.808142 
L 309.479771 484.351627 
L 309.728963 487.974858 
L 309.978155 479.460266 
L 310.227347 480.547235 
L 310.47654 476.742843 
L 310.725732 480.184912 
L 310.974924 480.728396 
L 311.224116 473.119612 
L 311.473309 481.453042 
L 311.722501 478.282716 
L 311.971693 476.924004 
L 312.470077 483.717562 
L 312.71927 481.543623 
L 312.968462 483.808142 
L 313.217654 473.300773 
L 313.466846 487.521954 
L 313.716039 487.612535 
L 313.965231 481.634204 
L 314.214423 479.641427 
L 314.463615 475.29355 
L 314.712808 483.808142 
L 314.962 486.797308 
L 315.211192 486.344404 
L 315.460384 480.366073 
L 315.709576 484.623369 
L 315.958769 478.373296 
L 316.207961 477.014585 
L 316.457153 483.898723 
L 316.955538 478.645039 
L 317.20473 471.307996 
L 317.453922 476.289939 
L 317.703114 470.673931 
L 317.952306 467.775347 
L 318.201499 483.808142 
L 318.450691 477.467489 
L 318.699883 474.568904 
L 318.949075 476.380519 
L 319.198268 469.949285 
L 319.44746 477.195746 
L 319.696652 476.833423 
L 319.945844 471.942062 
L 320.195037 483.989304 
L 320.693421 470.855093 
L 320.942613 478.8262 
L 321.191805 475.20297 
L 321.440998 481.724785 
L 321.69019 479.369685 
L 321.939382 487.340792 
L 322.188574 483.264658 
L 322.437767 472.485546 
L 322.686959 475.565293 
L 322.936151 472.666708 
L 323.185343 477.558069 
L 323.683728 481.815366 
L 323.93292 473.210193 
L 324.182112 471.7609 
L 324.431304 475.837035 
L 324.929689 476.199358 
L 325.178881 472.757289 
L 325.428073 485.982081 
L 325.677266 472.84787 
L 325.926458 469.4058 
L 326.17565 477.014585 
L 326.424842 469.31522 
L 326.674035 469.677543 
L 326.923227 478.735619 
L 327.172419 478.192135 
L 327.421611 482.540012 
L 327.670803 472.84787 
L 327.919996 470.945673 
L 328.169188 474.840646 
L 328.41838 471.126835 
L 328.916765 483.355239 
L 329.165957 481.362462 
L 329.415149 473.210193 
L 329.664341 469.677543 
L 329.913534 474.840646 
L 330.162726 471.851481 
L 330.411918 473.934839 
L 330.66111 482.087108 
L 330.910302 479.822589 
L 331.159495 472.394966 
L 331.408687 475.20297 
L 331.907071 472.485546 
L 332.156264 473.481935 
L 332.405456 473.300773 
L 332.654648 479.641427 
L 332.90384 473.663096 
L 333.153033 472.123223 
L 333.402225 478.101554 
L 333.651417 481.000139 
L 333.900609 474.206581 
L 334.149801 478.101554 
L 334.398994 468.047089 
L 335.14657 479.641427 
L 335.395763 475.837035 
L 335.644955 474.116 
L 335.894147 480.275492 
L 336.143339 480.094331 
L 336.392532 480.184912 
L 336.641724 478.101554 
L 336.890916 474.931227 
L 337.140108 478.645039 
L 337.3893 479.641427 
L 337.638493 484.170465 
L 337.887685 482.087108 
L 338.386069 469.586962 
L 338.635262 470.402189 
L 338.884454 469.858704 
L 339.382838 474.840646 
L 339.632031 472.123223 
L 339.881223 479.188523 
L 340.130415 477.376908 
L 340.379607 462.974566 
L 340.628799 473.391354 
L 341.127184 476.924004 
L 341.874761 468.499993 
L 342.373145 479.007362 
L 342.622337 468.409412 
L 342.87153 481.724785 
L 343.120722 475.746454 
L 343.369914 478.645039 
L 343.619106 471.489158 
L 343.868298 468.952897 
L 344.117491 475.20297 
L 344.366683 472.576127 
L 344.615875 477.739231 
L 344.865067 469.043477 
L 345.11426 466.597797 
L 345.363452 467.141281 
L 345.612644 471.579739 
L 345.861836 468.862316 
L 346.111029 472.304385 
L 346.360221 479.460266 
L 346.609413 467.141281 
L 346.858605 465.057924 
L 347.35699 471.7609 
L 347.606182 468.771735 
L 348.104566 474.659485 
L 348.602951 464.6956 
L 348.852143 475.837035 
L 349.101335 473.663096 
L 349.350528 474.387743 
L 349.59972 472.123223 
L 349.848912 484.532789 
L 350.347296 469.949285 
L 350.596489 470.673931 
L 350.845681 464.876762 
L 351.094873 467.322443 
L 351.344065 463.789793 
L 351.593258 471.489158 
L 351.84245 463.155727 
L 352.091642 467.141281 
L 352.340834 466.416635 
L 352.590027 469.224639 
L 352.839219 467.503604 
L 353.088411 473.481935 
L 353.337603 475.384131 
L 353.586795 472.032643 
L 353.835988 465.057924 
L 354.08518 466.326054 
L 354.334372 460.166562 
L 354.583564 471.67032 
L 354.832757 467.503604 
L 355.081949 474.02542 
L 355.331141 458.264366 
L 355.580333 467.594185 
L 355.829526 464.967343 
L 356.078718 445.039574 
L 356.32791 473.663096 
L 356.577102 473.300773 
L 356.826294 475.837035 
L 357.324679 458.71727 
L 357.573871 473.844258 
L 357.823063 467.322443 
L 358.072256 470.58335 
L 358.321448 468.952897 
L 358.57064 473.663096 
L 358.819832 462.340501 
L 359.069024 468.318831 
L 359.318217 458.173785 
L 359.816601 470.673931 
L 360.065793 467.503604 
L 360.314986 466.688377 
L 360.564178 460.981789 
L 360.81337 460.347724 
L 361.062562 465.963731 
L 361.560947 456.543331 
L 361.810139 469.4058 
L 362.059331 472.666708 
L 362.308523 471.398577 
L 362.557716 472.757289 
L 362.806908 473.300773 
L 363.554485 458.445528 
L 363.803677 465.691989 
L 364.052869 469.496381 
L 364.302061 463.42747 
L 364.551254 461.434693 
L 364.800446 458.083204 
L 365.049638 468.22825 
L 365.29883 461.253531 
L 365.548022 474.931227 
L 365.797215 461.434693 
L 366.046407 455.094039 
L 366.295599 452.82952 
L 366.793984 437.883693 
L 367.292368 465.691989 
L 367.54156 468.22825 
L 367.790753 463.246308 
L 368.039945 467.956508 
L 368.289137 475.927616 
L 368.538329 467.141281 
L 368.787521 475.112389 
L 369.036714 465.601408 
L 369.285906 470.402189 
L 369.535098 464.423858 
L 369.78429 463.51805 
L 370.033483 456.36217 
L 370.282675 465.329666 
L 370.531867 458.626689 
L 370.781059 463.065147 
L 371.030252 473.481935 
L 371.279444 459.170174 
L 371.528636 458.898431 
L 371.777828 450.746162 
L 372.02702 461.162951 
L 372.276213 464.061535 
L 372.525405 461.162951 
L 372.774597 456.815074 
L 373.023789 459.532497 
L 373.272982 449.840355 
L 373.522174 458.626689 
L 373.771366 459.985401 
L 374.020558 454.369393 
L 374.269751 461.434693 
L 374.518943 447.032351 
L 374.768135 451.470808 
L 375.017327 452.920101 
L 375.266519 459.804239 
L 375.515712 459.804239 
L 375.764904 463.789793 
L 376.014096 469.586962 
L 376.512481 453.554166 
L 376.761673 462.974566 
L 377.010865 458.536108 
L 377.260057 462.883985 
L 377.50925 455.637524 
L 377.758442 463.880374 
L 378.007634 450.927324 
L 378.256826 447.394674 
L 378.506018 455.909266 
L 378.755211 458.989012 
L 379.004403 472.666708 
L 379.253595 467.231862 
L 379.502787 456.996235 
L 379.75198 455.365781 
L 380.001172 452.376616 
L 380.250364 452.467197 
L 380.499556 454.00707 
L 380.748749 450.202678 
L 380.997941 462.340501 
L 381.496325 455.275201 
L 381.745517 454.912878 
L 381.99471 454.097651 
L 382.243902 456.543331 
L 382.493094 453.735328 
L 382.742286 453.010681 
L 382.991479 460.528885 
L 383.240671 453.554166 
L 383.739055 444.677251 
L 383.988248 459.441916 
L 384.23744 460.075981 
L 384.486632 448.209901 
L 384.735824 446.851189 
L 384.985016 448.209901 
L 385.234209 457.449139 
L 385.483401 450.47442 
L 385.732593 450.202678 
L 385.981785 456.090428 
L 386.230978 450.202678 
L 386.48017 455.637524 
L 386.729362 449.930935 
L 386.978554 438.246016 
L 387.227747 449.115708 
L 387.476939 449.478032 
L 387.975323 459.441916 
L 388.473708 450.565001 
L 388.972092 458.264366 
L 389.221284 449.659193 
L 389.719669 461.887597 
L 389.968861 461.525274 
L 390.218053 462.793404 
L 390.467246 448.11932 
L 390.716438 454.369393 
L 390.96563 457.267978 
L 391.214822 465.239085 
L 391.464014 463.155727 
L 391.713207 462.974566 
L 391.962399 459.170174 
L 392.211591 453.373005 
L 392.460783 451.65197 
L 392.709976 450.836743 
L 392.959168 454.278812 
L 393.457552 457.358558 
L 393.955937 437.340209 
L 394.205129 447.122932 
L 394.454321 450.202678 
L 394.703513 446.579447 
L 394.952706 452.014293 
L 395.201898 446.217124 
L 395.700282 421.941478 
L 395.949475 431.271297 
L 396.198667 432.448847 
L 396.447859 440.148212 
L 396.697051 440.419955 
L 396.946243 448.11932 
L 397.195436 440.329374 
L 397.444628 449.930935 
L 397.69382 449.387451 
L 397.943012 452.467197 
L 398.192205 452.195455 
L 398.441397 455.999847 
L 398.690589 449.568612 
L 398.939781 456.724493 
L 399.687358 443.318539 
L 399.93655 444.496089 
L 400.185742 448.843966 
L 400.434935 446.035962 
L 400.684127 440.419955 
L 400.933319 448.209901 
L 401.182511 440.872859 
L 401.431704 450.293258 
L 401.680896 433.445236 
L 401.930088 448.662805 
L 402.17928 439.332986 
L 402.428473 450.655581 
L 402.677665 445.673639 
L 402.926857 445.583059 
L 403.425241 440.329374 
L 403.674434 441.325762 
L 403.923626 446.217124 
L 404.172818 444.58667 
L 404.42201 444.224347 
L 404.671203 450.565001 
L 404.920395 442.050409 
L 405.169587 454.731716 
L 405.418779 454.641135 
L 405.667972 450.565001 
L 405.917164 451.470808 
L 406.166356 446.488866 
L 406.415548 449.206289 
L 406.66474 454.188231 
L 406.913933 444.858412 
L 407.163125 429.18794 
L 407.412317 434.441624 
L 407.661509 426.017613 
L 407.910702 440.329374 
L 408.159894 434.260463 
L 408.409086 446.217124 
L 408.658278 441.869247 
L 408.907471 453.554166 
L 409.156663 449.206289 
L 409.405855 458.264366 
L 409.655047 454.097651 
L 409.904239 444.043185 
L 410.153432 442.412732 
L 410.402624 452.286035 
L 410.651816 450.293258 
L 410.901008 442.140989 
L 411.150201 450.383839 
L 411.648585 450.655581 
L 411.897777 455.999847 
L 412.396162 437.159047 
L 412.645354 440.601116 
L 412.894546 454.731716 
L 413.143738 442.140989 
L 413.392931 443.318539 
L 413.642123 423.662513 
L 413.891315 444.405509 
L 414.140507 441.05402 
L 414.3897 454.188231 
L 414.638892 446.126543 
L 414.888084 432.81117 
L 415.137276 431.63362 
L 415.386469 428.916197 
L 415.635661 444.858412 
L 416.134045 457.811462 
L 416.383237 434.622786 
L 416.881622 440.419955 
L 417.130814 439.87647 
L 417.380006 447.394674 
L 417.629199 438.517759 
L 417.878391 444.767832 
L 418.127583 431.54304 
L 418.376775 435.075689 
L 418.625968 435.528593 
L 419.124352 440.148212 
L 419.373544 448.934547 
L 419.622736 446.579447 
L 419.871929 446.398285 
L 420.121121 424.296578 
L 420.370313 422.303801 
L 420.619505 437.159047 
L 420.868698 425.836451 
L 421.11789 443.590282 
L 421.367082 444.948993 
L 421.616274 455.18462 
L 421.865467 434.713366 
L 422.114659 431.724201 
L 422.363851 450.112097 
L 422.613043 442.593893 
L 422.862235 444.948993 
L 423.111428 452.195455 
L 423.609812 439.87647 
L 423.859004 427.466905 
L 424.108197 427.376324 
L 424.357389 440.691697 
L 424.606581 438.427178 
L 424.855773 452.920101 
L 425.104966 451.742551 
L 425.354158 442.412732 
L 425.60335 441.959828 
L 426.101734 428.463293 
L 426.350927 439.061243 
L 426.600119 443.680862 
L 426.849311 438.427178 
L 427.098503 414.151532 
L 427.347696 431.905363 
L 427.596888 423.481351 
L 427.84608 427.376324 
L 428.095272 439.967051 
L 428.593657 424.930644 
L 428.842849 409.622494 
L 429.092041 438.155436 
L 429.341233 423.028447 
L 429.590426 439.242405 
L 429.839618 431.905363 
L 430.08881 437.702532 
L 430.338002 424.749482 
L 430.587195 422.12264 
L 430.836387 435.075689 
L 431.085579 431.452459 
L 431.334771 413.87979 
L 431.583964 406.180425 
L 431.833156 422.394382 
L 432.082348 402.013709 
L 432.33154 428.825617 
L 432.580732 431.814782 
L 432.829925 429.369101 
L 433.079117 410.618882 
L 433.328309 426.289355 
L 433.577501 433.89814 
L 433.826694 431.361878 
L 434.075886 430.36549 
L 434.325078 434.441624 
L 434.57427 428.372713 
L 434.823463 434.169882 
L 435.072655 445.854801 
L 435.321847 436.253239 
L 435.571039 436.887305 
L 435.820231 443.227959 
L 436.318616 437.52137 
L 436.567808 441.416343 
L 436.817 449.478032 
L 437.066193 441.869247 
L 437.315385 430.546651 
L 437.564577 439.423566 
L 437.813769 439.514147 
L 438.062961 421.941478 
L 438.312154 447.394674 
L 438.561346 425.202386 
L 438.810538 414.966759 
L 439.05973 429.27852 
L 439.308923 428.10097 
L 439.558115 421.035671 
L 439.807307 441.597505 
L 440.056499 426.379936 
L 440.305692 430.184328 
L 440.554884 427.466905 
L 440.804076 446.488866 
L 441.053268 422.303801 
L 441.30246 433.445236 
L 441.551653 433.445236 
L 442.050037 419.133474 
L 442.299229 421.035671 
L 442.548422 432.81117 
L 442.797614 425.021224 
L 443.046806 426.742259 
L 443.295998 433.98872 
L 443.545191 416.053728 
L 443.794383 430.003166 
L 444.292767 419.586378 
L 444.541959 433.807559 
L 444.791152 423.028447 
L 445.040344 429.822005 
L 445.289536 417.684182 
L 445.538728 426.561097 
L 445.787921 428.191551 
L 446.037113 410.618882 
L 446.286305 411.796432 
L 446.535497 429.369101 
L 446.78469 409.894236 
L 447.283074 425.111805 
L 447.532266 419.76754 
L 447.781458 391.234598 
L 448.030651 422.756705 
L 448.279843 419.314636 
L 448.529035 419.858121 
L 448.778227 411.343528 
L 449.02742 434.985109 
L 449.276612 407.810878 
L 449.525804 417.050117 
L 449.774996 419.948701 
L 450.024189 418.952313 
L 450.522573 403.825325 
L 450.771765 433.445236 
L 451.020957 416.144309 
L 451.27015 414.423274 
L 451.519342 430.637232 
L 451.768534 416.506632 
L 452.017726 436.977886 
L 452.266919 440.782278 
L 452.516111 422.21322 
L 452.765303 419.948701 
L 453.014495 388.517175 
L 453.263688 428.825617 
L 453.51288 419.948701 
L 453.762072 424.47774 
L 454.011264 419.224055 
L 454.260456 423.39077 
L 454.509649 410.981205 
L 454.758841 431.995943 
L 455.008033 410.075398 
L 455.257225 406.089844 
L 455.506418 418.771151 
L 455.75561 387.97369 
L 456.004802 413.87979 
L 456.253994 422.575544 
L 456.503187 417.593601 
L 456.752379 417.231278 
L 457.001571 428.372713 
L 457.250763 427.738647 
L 457.499955 408.444944 
L 457.749148 412.883401 
L 457.99834 425.74587 
L 458.496724 371.216248 
L 458.745917 384.169298 
L 458.995109 415.781986 
L 459.244301 414.966759 
L 459.493493 427.557486 
L 459.742686 432.177105 
L 460.24107 405.818102 
L 460.490262 403.644163 
L 460.739454 407.720298 
L 461.237839 401.741967 
L 461.487031 398.752802 
L 461.736223 384.622202 
L 461.985416 412.339917 
L 462.234608 405.274617 
L 462.4838 410.34714 
L 462.732992 423.39077 
L 462.982185 413.87979 
L 463.231377 416.416051 
L 463.480569 413.245725 
L 463.729761 419.224055 
L 464.228146 394.948409 
L 464.477338 401.379644 
L 464.72653 422.847286 
L 464.975722 413.608048 
L 465.224915 411.162367 
L 465.474107 417.503021 
L 465.972491 399.115125 
L 466.470876 381.633037 
L 466.720068 405.63694 
L 466.96926 385.709171 
L 467.218452 389.513563 
L 467.467645 413.608048 
L 467.966029 401.470225 
L 468.215221 415.238501 
L 468.464414 411.796432 
L 468.713606 393.046213 
L 468.962798 389.06066 
L 469.21199 422.21322 
L 469.461183 400.020932 
L 469.710375 403.734744 
L 469.959567 404.097067 
L 470.457951 406.81449 
L 470.707144 413.87979 
L 470.956336 403.734744 
L 471.205528 402.466613 
L 471.45472 397.484671 
L 471.703913 384.078717 
L 471.953105 393.046213 
L 472.202297 392.230986 
L 472.451489 414.423274 
L 472.700682 382.448264 
L 473.448258 416.506632 
L 473.69745 409.713075 
L 473.946643 409.260171 
L 474.195835 410.709463 
L 474.445027 382.448264 
L 474.694219 408.173202 
L 474.943412 395.491894 
L 475.192604 409.079009 
L 475.441796 394.133183 
L 475.690988 386.70556 
L 475.94018 365.871983 
L 476.189373 375.020641 
L 476.438565 373.390187 
L 476.687757 397.937575 
L 476.936949 407.629717 
L 477.186142 391.50634 
L 477.435334 386.343237 
L 477.684526 384.259879 
L 477.933718 392.865052 
L 478.182911 384.712783 
L 478.432103 386.252656 
L 478.681295 391.50634 
L 478.930487 388.879498 
L 479.428872 359.803072 
L 479.678064 376.469933 
L 480.176448 385.52801 
L 480.425641 397.756413 
L 480.674833 341.052853 
L 480.924025 326.378768 
L 481.173217 353.462418 
L 481.671602 379.64026 
L 482.169986 358.897264 
L 482.419178 355.726937 
L 482.668371 343.498533 
L 482.917563 359.712491 
L 483.166755 360.165395 
L 483.66514 374.386575 
L 483.914332 360.708879 
L 484.163524 376.560514 
L 484.412716 354.730549 
L 484.661909 373.661929 
L 484.911101 358.716102 
L 485.160293 355.274033 
L 485.409485 327.193995 
L 485.658677 380.81781 
L 486.406254 364.966175 
L 486.655446 364.875595 
L 486.904639 374.295994 
L 487.403023 337.15788 
L 487.652215 359.62191 
L 487.901408 358.897264 
L 488.1506 361.614687 
L 488.399792 390.600533 
L 488.648984 363.788625 
L 488.898176 381.361294 
L 489.147369 379.459098 
L 489.396561 373.299606 
L 489.645753 351.37906 
L 489.894945 382.448264 
L 490.144138 359.531329 
L 490.39333 380.093164 
L 490.642522 359.712491 
L 490.891714 357.900876 
L 491.639291 333.353488 
L 491.888483 344.766664 
L 492.137675 343.04563 
L 492.386868 346.034795 
L 492.63606 358.716102 
L 492.885252 318.498242 
L 493.134444 345.853633 
L 493.383637 311.704684 
L 493.632829 349.748606 
L 493.882021 319.766372 
L 494.131213 312.067007 
L 494.380406 329.911418 
L 494.629598 363.15456 
L 495.127982 305.726353 
L 495.377174 341.95866 
L 495.626367 343.679695 
L 495.875559 331.541872 
L 496.124751 361.071202 
L 496.373943 341.415176 
L 496.623136 339.150657 
L 496.872328 319.132307 
L 497.12152 343.317372 
L 497.370712 333.62523 
L 497.619905 365.056756 
L 497.869097 368.317664 
L 498.118289 366.415468 
L 498.616673 331.813614 
L 498.865866 246.214789 
L 499.115058 341.324595 
L 499.36425 308.262615 
L 499.613442 360.437137 
L 499.862635 360.527718 
L 500.111827 358.625522 
L 500.361019 349.02396 
L 500.610211 334.259295 
L 500.859404 339.784722 
L 501.108596 298.026988 
L 501.357788 343.860857 
L 501.60698 343.679695 
L 501.856172 333.715811 
L 502.105365 336.704976 
L 502.354557 303.824157 
L 502.603749 346.215957 
L 502.852941 328.552707 
L 503.102134 321.396826 
L 503.351326 328.824449 
L 503.600518 317.864176 
L 504.098903 326.288188 
L 504.348095 320.943922 
L 504.597287 332.44768 
L 504.846479 349.839187 
L 505.344864 305.998096 
L 505.594056 333.444068 
L 505.843248 330.364322 
L 506.09244 355.908099 
L 506.341633 333.987553 
L 506.590825 331.994776 
L 507.089209 360.980622 
L 507.338402 346.306537 
L 507.587594 274.566569 
L 507.836786 253.008347 
L 508.085978 265.961396 
L 508.33517 302.556027 
L 508.584363 299.3857 
L 508.833555 291.233431 
L 509.082747 328.462126 
L 509.331939 309.168423 
L 509.581132 307.447388 
L 509.830324 314.78443 
L 510.079516 316.052561 
L 510.328708 334.983941 
L 510.577901 333.081745 
L 510.827093 305.635773 
L 511.325477 286.976135 
L 512.073054 351.288479 
L 512.322246 299.929184 
L 512.571438 324.657734 
L 512.820631 329.186772 
L 513.069823 235.798001 
L 513.319015 249.385116 
L 513.568207 323.389603 
L 513.8174 336.070911 
L 514.066592 293.49795 
L 514.315784 291.233431 
L 514.564976 304.367642 
L 514.814168 296.034211 
L 515.063361 272.754954 
L 515.312553 289.602977 
L 515.561745 282.718838 
L 515.810937 287.881942 
L 516.06013 277.374573 
L 516.309322 259.801904 
L 516.807706 306.269838 
L 517.056898 277.01225 
L 517.306091 295.037823 
L 517.555283 250.019181 
L 517.804475 273.841923 
L 518.053667 269.765789 
L 518.30286 286.160908 
L 518.552052 286.523231 
L 518.801244 293.679111 
L 519.050436 268.7694 
L 519.299629 199.656275 
L 519.798013 287.881942 
L 520.047205 306.179257 
L 520.296397 276.378185 
L 520.54559 276.197023 
L 520.794782 285.798585 
L 521.043974 275.744119 
L 521.293166 246.758274 
L 521.791551 282.447096 
L 522.040743 277.283992 
L 522.289935 301.469057 
L 522.539128 302.012542 
L 522.78832 263.878039 
L 523.037512 302.465446 
L 523.286704 267.229527 
L 523.535896 265.508493 
L 524.034281 281.088385 
L 524.283473 301.83138 
L 524.532665 257.446804 
L 524.781858 278.552123 
L 525.03105 259.892485 
L 525.280242 286.885554 
L 525.529434 284.168131 
L 525.778627 287.791361 
L 526.027819 283.171742 
L 526.277011 273.932504 
L 526.526203 290.871108 
L 526.775395 257.084481 
L 527.024588 246.667693 
L 527.27378 253.37067 
L 527.522972 268.316496 
L 527.772164 262.428747 
L 528.021357 223.660178 
L 528.270549 226.830505 
L 528.519741 201.46789 
L 528.768933 194.312009 
L 529.267318 220.127528 
L 529.51651 223.207274 
L 529.765702 170.126944 
L 530.014894 170.489267 
L 530.264087 219.402882 
L 530.513279 128.822114 
L 530.762471 186.250321 
L 531.011663 184.801029 
L 531.260856 175.56179 
L 531.510048 141.503422 
L 531.75924 141.412841 
L 532.008432 149.56511 
L 532.257625 132.264184 
L 532.506817 83.803473 
L 533.005201 185.525675 
L 533.254393 71.122165 
L 533.503586 85.343346 
L 533.752778 82.535342 
L 534.00197 57.172727 
L 534.251162 124.74598 
L 534.500355 124.74598 
L 534.749547 179.909667 
L 534.998739 103.278338 
L 535.247931 92.589807 
L 535.497124 133.804057 
L 535.746316 89.147738 
L 536.2447 507.0874 
L 536.2447 507.0874 
" style="fill:none;stroke:#1f77b4;stroke-linecap:square;stroke-width:1.5;"/>
   </g>
   <g id="patch_3">
    <path d="M 60.3 531.2 
L 60.3 34.6 
" style="fill:none;stroke:#000000;stroke-linecap:square;stroke-linejoin:miter;stroke-width:0.8;"/>
   </g>
   <g id="patch_4">
    <path d="M 558.908734 531.2 
L 558.908734 34.6 
" style="fill:none;stroke:#000000;stroke-linecap:square;stroke-linejoin:miter;stroke-width:0.8;"/>
   </g>
   <g id="patch_5">
    <path d="M 60.3 531.2 
L 558.908734 531.2 
" style="fill:none;stroke:#000000;stroke-linecap:square;stroke-linejoin:miter;stroke-width:0.8;"/>
   </g>
   <g id="patch_6">
    <path d="M 60.3 34.6 
L 558.908734 34.6 
" style="fill:none;stroke:#000000;stroke-linecap:square;stroke-linejoin:miter;stroke-width:0.8;"/>
   </g>
  </g>
  <g id="text_15">
   <!-- Retweet Growth Trend -->
   <g transform="translate(221.472188 20.638125)scale(0.12 -0.12)">
    <defs>
     <path d="M 59.515625 10.40625 
L 59.515625 29.984375 
L 43.40625 29.984375 
L 43.40625 38.09375 
L 69.28125 38.09375 
L 69.28125 6.78125 
Q 63.578125 2.734375 56.6875 0.65625 
Q 49.8125 -1.421875 42 -1.421875 
Q 24.90625 -1.421875 15.25 8.5625 
Q 5.609375 18.5625 5.609375 36.375 
Q 5.609375 54.25 15.25 64.234375 
Q 24.90625 74.21875 42 74.21875 
Q 49.125 74.21875 55.546875 72.453125 
Q 61.96875 70.703125 67.390625 67.28125 
L 67.390625 56.78125 
Q 61.921875 61.421875 55.765625 63.765625 
Q 49.609375 66.109375 42.828125 66.109375 
Q 29.4375 66.109375 22.71875 58.640625 
Q 16.015625 51.171875 16.015625 36.375 
Q 16.015625 21.625 22.71875 14.15625 
Q 29.4375 6.6875 42.828125 6.6875 
Q 48.046875 6.6875 52.140625 7.59375 
Q 56.25 8.5 59.515625 10.40625 
z
" id="DejaVuSans-71"/>
     <path d="M 54.890625 33.015625 
L 54.890625 0 
L 45.90625 0 
L 45.90625 32.71875 
Q 45.90625 40.484375 42.875 44.328125 
Q 39.84375 48.1875 33.796875 48.1875 
Q 26.515625 48.1875 22.3125 43.546875 
Q 18.109375 38.921875 18.109375 30.90625 
L 18.109375 0 
L 9.078125 0 
L 9.078125 75.984375 
L 18.109375 75.984375 
L 18.109375 46.1875 
Q 21.34375 51.125 25.703125 53.5625 
Q 30.078125 56 35.796875 56 
Q 45.21875 56 50.046875 50.171875 
Q 54.890625 44.34375 54.890625 33.015625 
z
" id="DejaVuSans-104"/>
     <path d="M -0.296875 72.90625 
L 61.375 72.90625 
L 61.375 64.59375 
L 35.5 64.59375 
L 35.5 0 
L 25.59375 0 
L 25.59375 64.59375 
L -0.296875 64.59375 
z
" id="DejaVuSans-84"/>
     <path d="M 54.890625 33.015625 
L 54.890625 0 
L 45.90625 0 
L 45.90625 32.71875 
Q 45.90625 40.484375 42.875 44.328125 
Q 39.84375 48.1875 33.796875 48.1875 
Q 26.515625 48.1875 22.3125 43.546875 
Q 18.109375 38.921875 18.109375 30.90625 
L 18.109375 0 
L 9.078125 0 
L 9.078125 54.6875 
L 18.109375 54.6875 
L 18.109375 46.1875 
Q 21.34375 51.125 25.703125 53.5625 
Q 30.078125 56 35.796875 56 
Q 45.21875 56 50.046875 50.171875 
Q 54.890625 44.34375 54.890625 33.015625 
z
" id="DejaVuSans-110"/>
     <path d="M 45.40625 46.390625 
L 45.40625 75.984375 
L 54.390625 75.984375 
L 54.390625 0 
L 45.40625 0 
L 45.40625 8.203125 
Q 42.578125 3.328125 38.25 0.953125 
Q 33.9375 -1.421875 27.875 -1.421875 
Q 17.96875 -1.421875 11.734375 6.484375 
Q 5.515625 14.40625 5.515625 27.296875 
Q 5.515625 40.1875 11.734375 48.09375 
Q 17.96875 56 27.875 56 
Q 33.9375 56 38.25 53.625 
Q 42.578125 51.265625 45.40625 46.390625 
z
M 14.796875 27.296875 
Q 14.796875 17.390625 18.875 11.75 
Q 22.953125 6.109375 30.078125 6.109375 
Q 37.203125 6.109375 41.296875 11.75 
Q 45.40625 17.390625 45.40625 27.296875 
Q 45.40625 37.203125 41.296875 42.84375 
Q 37.203125 48.484375 30.078125 48.484375 
Q 22.953125 48.484375 18.875 42.84375 
Q 14.796875 37.203125 14.796875 27.296875 
z
" id="DejaVuSans-100"/>
    </defs>
    <use xlink:href="#DejaVuSans-82"/>
    <use x="64.982422" xlink:href="#DejaVuSans-101"/>
    <use x="126.505859" xlink:href="#DejaVuSans-116"/>
    <use x="165.714844" xlink:href="#DejaVuSans-119"/>
    <use x="247.501953" xlink:href="#DejaVuSans-101"/>
    <use x="309.025391" xlink:href="#DejaVuSans-101"/>
    <use x="370.548828" xlink:href="#DejaVuSans-116"/>
    <use x="409.757812" xlink:href="#DejaVuSans-32"/>
    <use x="441.544922" xlink:href="#DejaVuSans-71"/>
    <use x="519.035156" xlink:href="#DejaVuSans-114"/>
    <use x="557.898438" xlink:href="#DejaVuSans-111"/>
    <use x="619.080078" xlink:href="#DejaVuSans-119"/>
    <use x="700.867188" xlink:href="#DejaVuSans-116"/>
    <use x="740.076172" xlink:href="#DejaVuSans-104"/>
    <use x="803.455078" xlink:href="#DejaVuSans-32"/>
    <use x="835.242188" xlink:href="#DejaVuSans-84"/>
    <use x="881.576172" xlink:href="#DejaVuSans-114"/>
    <use x="920.439453" xlink:href="#DejaVuSans-101"/>
    <use x="981.962891" xlink:href="#DejaVuSans-110"/>
    <use x="1045.341797" xlink:href="#DejaVuSans-100"/>
   </g>
  </g>
 </g>
 <defs>
  <clipPath id="p3d8a352425">
   <rect height="496.6" width="498.608734" x="60.3" y="34.6"/>
  </clipPath>
 </defs>
</svg>
